<?xml version="1.0" standalone="no"?>
<!DOCTYPE svg PUBLIC "-//W3C//DTD SVG 1.1//EN" "http://www.w3.org/Graphics/SVG/1.1/DTD/svg11.dtd" >
<svg xmlns="http://www.w3.org/2000/svg">
<metadata></metadata>
<defs>
<font id="quadonregular" horiz-adv-x="1622" >
<font-face units-per-em="2048" ascent="1638" descent="-410" />
<missing-glyph horiz-adv-x="503" />
<glyph horiz-adv-x="2048" />
<glyph horiz-adv-x="2048" />
<glyph unicode="&#xd;" horiz-adv-x="2048" />
<glyph unicode=" "  horiz-adv-x="503" />
<glyph unicode="&#x09;" horiz-adv-x="503" />
<glyph unicode="&#xa0;" horiz-adv-x="503" />
<glyph unicode="!" horiz-adv-x="454" d="M127 84q0 94 100 94q101 0 101 -94q0 -92 -101 -92q-100 0 -100 92zM141 1257v177h172v-177l-41 -854h-90z" />
<glyph unicode="&#x22;" horiz-adv-x="608" d="M96 899v535h156v-95q0 -175 -80 -440h-76zM356 899v535h156v-95q0 -175 -80 -440h-76z" />
<glyph unicode="#" horiz-adv-x="1353" d="M51 385v135h232l73 416h-243v133h264l63 365h140l-66 -365h455l65 365h137l-63 -365h197v-133h-218l-73 -416h243v-135h-264l-67 -385h-140l68 385h-455l-67 -385h-137l67 385h-211zM420 520h454l74 416h-454z" />
<glyph unicode="$" horiz-adv-x="1331" d="M143 1061v29q0 185 106 268t347 86v149h123v-151q221 -9 428 -92v-326h-125l-25 227q-135 63 -309 66v-490l230 -51q152 -37 211 -109.5t59 -222.5v-88q0 -199 -107.5 -281.5t-365.5 -82.5h-2v-139h-123v141q-119 4 -219 30.5t-221 81.5v318h131l22 -227q137 -70 322 -76 v569l-222 51q-150 40 -205 108.5t-55 211.5zM311 1071q0 -85 35.5 -129t124.5 -65l154 -35v475h-4q-168 0 -239 -50.5t-71 -170.5v-25zM688 119h19q180 0 249.5 51t69.5 186v64q0 104 -44 151.5t-165 75.5l-129 29v-557z" />
<glyph unicode="%" horiz-adv-x="1804" d="M100 981v135q0 179 62 259.5t223 80.5h123q160 -1 220 -81t60 -259v-135q-1 -89 -14 -149t-44.5 -103.5t-85.5 -63.5t-136 -20h-123q-82 0 -137 20t-87.5 63.5t-46 103.5t-14.5 149zM217 987q0 -127 35.5 -181t138.5 -54h107q102 0 137 54t37 181v125q0 126 -36 182 t-138 56h-107q-103 0 -138.5 -55.5t-35.5 -182.5v-125zM324 -12l548 735l512 727h78l-536 -727l-525 -735h-77zM1016 315v136q0 179 61 258t223 79h123q159 0 220 -79t61 -258v-136q-1 -89 -14 -149t-45 -103t-86 -63t-136 -20h-123q-161 0 -222.5 78.5t-61.5 256.5z M1133 322q0 -127 35.5 -182.5t138.5 -55.5h106q102 0 137 55.5t37 182.5v122q0 128 -36 184t-138 56h-106q-103 0 -138.5 -55.5t-35.5 -184.5v-122z" />
<glyph unicode="&#x26;" horiz-adv-x="1519" d="M80 395v66q0 78 23.5 138.5t68.5 101.5t98 68t123 48q-57 65 -83.5 126t-26.5 142v25q0 183 85.5 262.5t276.5 79.5h37q93 0 178.5 -17.5t198.5 -58.5v-243h-127l-17 147q-106 45 -241 45h-21q-115 0 -164 -51t-49 -168v-14q0 -56 15.5 -99t37.5 -72t74 -87l449 -449 q88 175 125 453h280v-117q-41 -2 -84.5 -4.5t-63 -3.5t-28.5 -2q-40 -274 -125 -437l150 -149q28 0 184 -8v-117h-266l-137 137q-60 -91 -144 -120t-262 -29h-94q-124 0 -207.5 18t-145 63t-90 125t-28.5 201zM229 422q0 -166 78 -233.5t238 -67.5h94q133 0 196 25t113 100 l-475 477q-57 -17 -94.5 -34t-75 -45.5t-56 -72.5t-18.5 -104v-45z" />
<glyph unicode="'" horiz-adv-x="348" d="M96 899v535h156v-95q0 -175 -80 -440h-76z" />
<glyph unicode="(" horiz-adv-x="565" d="M92 94v983q0 82 23.5 145t74 111.5t112 84.5t153.5 75l32 -72q-146 -78 -200 -147.5t-54 -196.5v-983q0 -127 54 -196.5t200 -147.5l-32 -72q-93 40 -154 76t-111.5 84.5t-74 111t-23.5 144.5z" />
<glyph unicode=")" horiz-adv-x="573" d="M86 -250q146 78 200 147.5t54 196.5v983q0 127 -54 196.5t-200 147.5l33 72q92 -39 153.5 -75t111.5 -84.5t73.5 -111.5t23.5 -145v-983q0 -66 -16.5 -120t-45 -94.5t-76 -77t-99 -64.5t-125.5 -60z" />
<glyph unicode="*" horiz-adv-x="778" d="M78 977l76 43l184 84l-184 80l-76 43l49 82l74 -43l164 -119l-23 201v86h94v-86l-20 -201l162 119l73 43l49 -82l-75 -43l-185 -80l185 -84l75 -43l-49 -80l-73 43l-164 121l22 -205v-84h-94v84l23 207l-164 -123l-74 -43z" />
<glyph unicode="+" horiz-adv-x="1214" d="M117 653v129h422v439h137v-439h422v-129h-422v-438h-137v438h-422z" />
<glyph unicode="," horiz-adv-x="382" d="M76 -211q34 57 53 100t22.5 61t6.5 46l-62 20l17 97q9 64 80 51q54 -10 76 -26.5t22 -55.5q0 -125 -174 -324z" />
<glyph unicode="-" horiz-adv-x="763" d="M100 553v131h564v-131h-564z" />
<glyph unicode="." horiz-adv-x="391" d="M96 84q0 94 101 94q100 0 100 -94q0 -92 -100 -92q-101 0 -101 92z" />
<glyph unicode="/" horiz-adv-x="858" d="M-27 -143l803 1745h103l-803 -1745h-103z" />
<glyph unicode="0" horiz-adv-x="1327" d="M141 463v500q0 252 117 370.5t363 118.5h92q243 0 359 -119.5t116 -369.5v-498q-3 -249 -118.5 -367t-354.5 -118h-94q-244 0 -361 117.5t-119 365.5zM303 463q0 -344 326 -344h69q326 0 326 344v508q0 346 -326 346h-69q-326 0 -326 -346v-508z" />
<glyph unicode="1" horiz-adv-x="780" d="M84 1229v117l324 94h92v-1313q62 -2 196 -10v-117h-590v117q118 9 232 12v1155z" />
<glyph unicode="2" horiz-adv-x="1230" d="M143 0v119q0 162 15.5 253.5t51.5 145.5t107 100q35 22 84 46.5t90.5 43t118.5 52t129 57.5q101 44 141 86t40 109v63q0 146 -56 195t-219 49q-194 0 -330 -72l-14 -157h-121v258q135 60 241 82t238 22q234 0 326 -84t92 -297v-65q0 -64 -13.5 -107.5t-50 -79.5 t-82.5 -62.5t-128 -62.5q-39 -18 -129 -54t-158.5 -66t-105.5 -54q-74 -52 -94.5 -126t-20.5 -271h663l15 239h112v-362h-942z" />
<glyph unicode="3" horiz-adv-x="1173" d="M98 59v271h111l16 -172q222 -43 359 -43q180 0 237.5 48.5t57.5 198.5v82q0 63 -15 103t-35.5 63t-74.5 33t-97.5 12t-138.5 2h-180v121h180q71 0 107 1t82.5 5.5t67.5 14t46.5 26.5t34.5 44t16 64t7 89v47q0 147 -62 200.5t-233 53.5q-150 0 -336 -55l-17 -191h-110v287 q274 86 463 86q172 0 268.5 -36t138 -114.5t41.5 -216.5v-59q0 -148 -38 -219t-117 -92q78 -20 116.5 -83.5t38.5 -191.5v-88q0 -204 -96.5 -282t-351.5 -78q-190 0 -486 69z" />
<glyph unicode="4" horiz-adv-x="1234" d="M33 389v119l745 926h164v-926h203v-105l-203 -14v-266q40 -1 116 -6t91 -6v-111h-580v111q110 9 209 12v266h-745zM205 508h573v737z" />
<glyph unicode="5" horiz-adv-x="1167" d="M84 59v269h111l14 -172q227 -43 364 -43q140 0 212.5 26t101 83.5t28.5 166.5v143q0 98 -48 149.5t-140 51.5h-143q-99 0 -166.5 -20t-155.5 -80l-129 39l35 762h862v-291h-110l-11 164h-610l-25 -547q85 53 162.5 72.5t181.5 19.5h144q307 0 307 -301v-170 q0 -114 -22.5 -187t-79 -121t-147.5 -67.5t-234 -19.5q-189 0 -502 73z" />
<glyph unicode="6" horiz-adv-x="1251" d="M141 442v506q0 249 124 376.5t368 127.5q142 0 238 -15t237 -53v-260h-133l-23 150q-85 24 -151 33.5t-168 9.5q-163 0 -246.5 -92t-83.5 -273v-219q113 63 200.5 93t211.5 34h73q211 0 297 -80.5t86 -281.5v-119q0 -201 -112 -296t-336 -95h-98q-242 0 -362.5 109 t-121.5 345zM303 428q0 -161 81.5 -233t244.5 -72h92q147 0 221 66.5t74 207.5v84q0 144 -58.5 202t-201.5 58h-64q-114 0 -199.5 -26.5t-189.5 -85.5v-201z" />
<glyph unicode="7" horiz-adv-x="1150" d="M78 1081v353h1009v-127l-604 -1307h-188v39l641 1261h-727l-21 -219h-110z" />
<glyph unicode="8" horiz-adv-x="1357" d="M125 365v36q0 144 75 225.5t234 102.5q-128 26 -188 101t-60 206v72q2 172 109.5 256t329.5 84h116q219 0 324.5 -84t105.5 -256v-72q0 -132 -58.5 -206t-184.5 -99q157 -23 231 -104.5t74 -225.5v-36q0 -194 -111.5 -289.5t-347.5 -95.5h-182q-239 0 -352 95.5 t-115 289.5zM289 375q0 -266 309 -266h164q307 0 307 266v57q0 123 -74.5 184.5t-232.5 61.5h-164q-158 0 -233.5 -61.5t-75.5 -184.5v-57zM334 1028q0 -121 70.5 -177t224.5 -56h102q152 0 222.5 56t70.5 177v68q0 121 -70 176t-223 57h-102q-154 0 -224.5 -56t-70.5 -177 v-68z" />
<glyph unicode="9" horiz-adv-x="1251" d="M80 938v121q0 196 111.5 294.5t326.5 98.5h119q252 0 362 -108t113 -353v-512q0 -266 -122.5 -379.5t-403.5 -113.5q-109 0 -198.5 16t-235.5 57v275h143l10 -166q82 -25 141.5 -36t139.5 -11q194 0 278 78.5t84 267.5v225q-81 -42 -127 -62t-122.5 -37.5t-161.5 -17.5 h-74q-211 0 -297 81.5t-86 281.5zM236 956q0 -144 58.5 -203t201.5 -59h65q113 0 200 26t187 81v213q0 162 -75.5 233.5t-249.5 71.5h-93q-294 0 -294 -281v-82z" />
<glyph unicode=":" horiz-adv-x="391" d="M96 84q0 94 101 94q100 0 100 -94q0 -92 -100 -92q-101 0 -101 92zM96 965q0 94 101 94q100 0 100 -94q0 -93 -100 -93q-101 0 -101 93z" />
<glyph unicode=";" horiz-adv-x="391" d="M76 -211q34 57 53 100t22.5 61t6.5 46l-62 20l17 97q9 64 80 51q54 -10 76 -26.5t22 -55.5q0 -125 -174 -324zM96 965q0 94 101 94q100 0 100 -94q0 -93 -100 -93q-101 0 -101 93z" />
<glyph unicode="&#x3c;" horiz-adv-x="1148" d="M96 670v84l860 450h68v-100l-756 -387v-8l756 -383v-103h-76z" />
<glyph unicode="=" horiz-adv-x="1130" d="M117 408v133h899v-133h-899zM117 887v133h899v-133h-899z" />
<glyph unicode="&#x3e;" horiz-adv-x="1148" d="M125 223v103l756 383v8l-756 387v100h68l860 -450v-84l-852 -447h-76z" />
<glyph unicode="?" horiz-adv-x="1019" d="M43 1094v254q142 61 240 82.5t235 21.5q236 0 329 -79t93 -286v-59q0 -119 -39 -182.5t-131 -100.5q-55 -22 -155 -59t-142 -53v-238h-121l-22 320q191 69 319 121q74 31 103.5 74.5t29.5 111.5v57q0 77 -11.5 122t-43.5 74t-84 39.5t-139 10.5q-101 0 -171 -16t-153 -56 l-16 -159h-121zM313 84q0 94 101 94q100 0 100 -94q0 -92 -100 -92q-101 0 -101 92z" />
<glyph unicode="@" horiz-adv-x="2152" d="M150 473q0 218 72.5 400.5t205 312t327.5 202t431 72.5q376 0 597.5 -200.5t221.5 -542.5q0 -287 -132.5 -458t-359.5 -171q-31 0 -49.5 1t-46.5 4t-45.5 11.5t-36.5 22t-30 36t-15 52.5q-41 -41 -71 -65.5t-72.5 -48t-94.5 -34t-118 -10.5h-37q-159 0 -239 96.5 t-60 290.5l25 250q13 156 107 245t228 89h52q101 0 179 -22.5t165 -71.5l8 92h145l-80 -709q-5 -51 3 -83t30 -46t44 -18t59 -4q163 0 262.5 147.5t99.5 395.5q0 314 -198 497t-543 183q-220 0 -401 -68t-302.5 -189.5t-187.5 -290t-66 -368.5q0 -345 224.5 -546t601.5 -201 q162 0 329.5 40.5t298.5 108.5l29 -61q-129 -72 -306 -116t-353 -44q-271 0 -474.5 98t-315 284t-111.5 437zM741 469q-11 -157 38.5 -228t174.5 -71h31q101 0 163 31t142 104l2 19l49 514q-71 43 -140 62.5t-157 19.5h-51q-100 0 -162.5 -68.5t-74.5 -202.5z" />
<glyph unicode="A" d="M51 0v117q165 10 189 10l407 1180q-9 1 -38 2.5t-63.5 3.5t-72.5 4v117h449l454 -1307q27 0 197 -10v-117h-531v117q110 8 156 8l-108 311h-584l-103 -309q14 -1 144 -10v-117h-496zM541 573h512l-254 725h-6z" />
<glyph unicode="B" horiz-adv-x="1390" d="M84 1317v117h702q228 0 332.5 -87.5t104.5 -277.5v-29q0 -240 -201 -299q227 -52 227 -313v-45q0 -202 -104 -292.5t-328 -90.5h-731v117q36 3 182 10v1180q-153 8 -184 10zM430 135h367q288 0 288 271v38q0 123 -72 177.5t-216 54.5h-367v-541zM430 801h367 q141 0 203.5 53t62.5 176v29q0 126 -62.5 182.5t-209.5 56.5h-361v-497z" />
<glyph unicode="C" horiz-adv-x="1339" d="M143 442v506q0 249 122 376.5t360 127.5h84q282 0 487 -82v-344h-131l-25 242q-58 24 -129.5 35.5t-123 13.5t-154.5 2q-161 0 -244.5 -92.5t-83.5 -272.5v-520q0 -317 328 -317h110q127 0 209.5 49.5t128.5 152.5h131v-120q-71 -105 -192.5 -162t-265.5 -57h-138 q-239 0 -355.5 112t-117.5 350z" />
<glyph unicode="D" horiz-adv-x="1492" d="M84 1317v117h795q239 0 356 -115t117 -348v-514q-2 -230 -118.5 -343.5t-354.5 -113.5h-793v117q38 3 99 6.5t83 5.5v1178q-135 7 -184 10zM430 135h434q160 0 243 80.5t85 235.5v530q0 156 -84 236.5t-244 80.5h-434v-1163z" />
<glyph unicode="E" horiz-adv-x="1320" d="M84 1317v117h1077v-359h-104l-21 228h-614v-504h452v-142h-452v-526h637l20 227h105v-358h-1098v117q36 2 174 10v1180q-9 1 -38 2t-63.5 3t-74.5 5z" />
<glyph unicode="F" horiz-adv-x="1280" d="M84 1317v117h1100v-359h-105l-20 228h-637v-545h485v-142h-485v-489q136 -5 213 -10v-117h-549v117q128 8 174 10v1180q-1 0 -61.5 3t-114.5 7z" />
<glyph unicode="G" horiz-adv-x="1427" d="M143 446v486q0 249 133.5 384.5t378.5 135.5h74q104 0 252.5 -20.5t263.5 -61.5v-346h-133l-22 236q-123 47 -420 47q-171 0 -268 -98t-97 -277v-496q0 -155 92 -233t265 -78h163q140 0 227.5 71t88.5 191v186q-259 9 -473 19v117h620v-334q0 -78 -27 -144t-72 -111.5 t-105.5 -77.5t-127 -47t-135.5 -15h-174q-251 0 -377.5 114.5t-126.5 351.5z" />
<glyph unicode="H" d="M84 0v117q127 8 184 10v1180q-55 2 -184 10v117h498v-117q-48 -4 -152 -8v-514h766v514q-109 4 -158 8v117h500v-117q-123 -8 -178 -10v-1180q55 -2 178 -10v-117h-500v117q49 4 158 8v532h-766v-532q104 -4 152 -8v-117h-498z" />
<glyph unicode="I" horiz-adv-x="675" d="M84 1317v117h510v-117q-121 -8 -172 -10v-1180q51 -2 172 -10v-117h-508v117q128 8 174 10v1180q-59 2 -176 10z" />
<glyph unicode="J" horiz-adv-x="688" d="M78 -236q31 31 67 72q81 88 110.5 167t29.5 226v1078q-51 2 -176 10v117h509v-117q-123 -8 -169 -10v-1078q0 -173 -35 -259.5t-148 -190.5q-33 -29 -116 -86z" />
<glyph unicode="K" horiz-adv-x="1538" d="M84 1317v117h510v-117q-121 -8 -172 -10v-512h338l370 514q-98 4 -151 8v117h494v-117q-58 -4 -170 -8l-408 -574l414 -608q48 -2 186 -10v-117h-514v117q94 4 145 4l-356 534h-348v-528q51 -2 172 -10v-117h-508v117q128 8 174 10v1180q-59 2 -176 10z" />
<glyph unicode="L" horiz-adv-x="1277" d="M84 1317v117h528v-117q-96 -9 -190 -12v-1174h631l20 254h111v-385h-1098v117q53 4 110.5 7t63.5 3v1180q-57 2 -176 10z" />
<glyph unicode="M" horiz-adv-x="1943" d="M84 1317v117h397l477 -1192h5l493 1192h404v-117q-143 -10 -183 -10v-1180q53 -2 181 -10v-117h-492v117q49 4 154 8v1108l-504 -1233h-115l-479 1233v-1106q44 -2 158 -10v-117h-494v117q143 9 182 10v1178z" />
<glyph unicode="N" horiz-adv-x="1609" d="M84 1317v117h342l776 -1188v1063q-104 4 -160 8v117h484v-117q-123 -8 -178 -10v-1307h-179l-755 1176v-1051q98 -4 151 -8v-117h-479v117q129 8 182 10v1178z" />
<glyph unicode="O" horiz-adv-x="1466" d="M141 479v467q0 235 134 370.5t374 135.5h172q238 0 371 -135.5t133 -370.5v-465q0 -232 -134 -366.5t-370 -134.5h-172q-239 0 -372.5 134t-135.5 365zM303 475q0 -166 93.5 -257t260.5 -91h150q167 0 261 91t95 257v479q0 168 -94.5 260.5t-261.5 92.5h-150 q-165 0 -259.5 -95t-94.5 -258v-479z" />
<glyph unicode="P" horiz-adv-x="1343" d="M84 1317v117h729q214 0 324 -102t110 -298v-119q0 -189 -110 -288t-322 -99h-385v-401q63 -2 184 -10v-117h-528v117q123 8 182 10v1180q-153 8 -184 10zM430 664h375q140 0 214.5 71t74.5 201v86q0 133 -74.5 204.5t-214.5 71.5h-375v-634z" />
<glyph unicode="Q" horiz-adv-x="1466" d="M141 479v467q0 235 134 370.5t374 135.5h172q238 0 371 -135.5t133 -370.5v-465q0 -232 -134 -366.5t-370 -134.5h-172q-239 0 -372.5 134t-135.5 365zM303 471q0 -166 93.5 -258t260.5 -92h150q166 0 260.5 91.5t95.5 258.5v487q0 168 -94.5 260.5t-261.5 92.5h-150 q-165 0 -259.5 -95t-94.5 -258v-487zM604 -152q289 60 440 68q13 1 25 1q108 0 159 -48q57 -53 79 -168l-119 -82q-34 112 -72.5 152t-130.5 43h-12q-118 0 -369 -35v69z" />
<glyph unicode="R" horiz-adv-x="1415" d="M84 1317v117h721q215 0 327.5 -100t112.5 -294v-98q0 -139 -72 -229t-202 -129q108 -180 229 -457l174 -10v-117h-348v125q-104 267 -205 434h-391v-436l160 -6v-117h-504v117q123 8 182 10v1180q-153 8 -184 10zM430 700h373q138 0 214.5 68.5t76.5 185.5v74 q0 128 -75.5 199t-215.5 71h-373v-598z" />
<glyph unicode="S" horiz-adv-x="1331" d="M143 1065v29q0 191 110.5 274.5t362.5 83.5h43q250 0 488 -96v-330h-125l-25 231q-138 66 -335 66h-41q-168 0 -239 -51t-71 -172v-25q0 -86 35 -130.5t125 -65.5l447 -103q152 -37 211 -110.5t59 -225.5v-88q0 -201 -107.5 -284.5t-365.5 -83.5h-53q-149 0 -264 26.5 t-248 89.5v320h131l22 -230q155 -77 377 -77h27q181 0 250 51.5t69 187.5v64q0 105 -44 153.5t-165 77.5l-414 94q-150 40 -205 109t-55 215z" />
<glyph unicode="T" horiz-adv-x="1400" d="M78 1065v369h1245v-369h-113l-14 233h-412v-1171q68 -2 179 -10v-117h-523v117q109 7 183 10v1171h-418l-12 -233h-115z" />
<glyph unicode="U" horiz-adv-x="1572" d="M80 1317v117h514v-117q-132 -8 -180 -10v-869q0 -156 83 -239.5t242 -83.5h121q158 0 242 83.5t84 239.5v871q-116 4 -172 8v117h479v-117q-25 -2 -77.5 -5t-78.5 -5v-856q0 -471 -475 -471h-131q-481 0 -481 471v856q-49 2 -170 10z" />
<glyph unicode="V" horiz-adv-x="1542" d="M43 1317v117h518v-117q-30 -2 -92 -5t-94 -5l385 -1145h24l381 1145q-61 2 -186 10v117h520v-117q-111 -8 -160 -10l-448 -1307h-246l-448 1309q-48 0 -154 8z" />
<glyph unicode="W" horiz-adv-x="2086" d="M37 1317v117h506v-117q-53 -3 -185 -8l289 -1127h12l320 1252h143l324 -1250h10l297 1125q-134 5 -186 8v117h483v-117q-106 -8 -149 -8l-351 -1309h-211l-286 1149h-6l-287 -1149h-228l-348 1309q-98 4 -147 8z" />
<glyph unicode="X" horiz-adv-x="1433" d="M35 1317v117h514v-117l-158 -6l346 -510h4l328 508q-113 4 -168 8v117h496v-117q-111 -8 -160 -10l-399 -584l409 -598q101 -4 150 -8v-117h-500v117q110 4 154 4l-346 524h-3l-323 -520q108 -4 164 -8v-117h-496v117q113 8 160 10l395 592l-416 590q-98 4 -151 8z" />
<glyph unicode="Y" horiz-adv-x="1447" d="M43 1317v117h492v-117l-156 -6l348 -666h4l348 664q-107 4 -161 8v117h487v-117q-117 -8 -164 -10l-438 -791v-389q49 -2 170 -10v-117h-508v117q128 8 174 10v383l-438 797q-44 2 -158 10z" />
<glyph unicode="Z" horiz-adv-x="1286" d="M111 0v98q0 25 20 54l860 1155h-745l-21 -242h-114v369h1075v-115l-867 -1192h728l22 254h115v-381h-1073z" />
<glyph unicode="[" horiz-adv-x="671" d="M141 -276v1726h453v-109h-313v-1511h313v-106h-453z" />
<glyph unicode="\" horiz-adv-x="858" d="M-20 1602h102l803 -1745h-103z" />
<glyph unicode="]" horiz-adv-x="671" d="M78 -170h313v1511h-313v109h452v-1726h-452v106z" />
<glyph unicode="^" horiz-adv-x="796" d="M51 979v57l311 402h74l309 -402v-57h-86l-256 319h-6l-256 -319h-90z" />
<glyph unicode="_" horiz-adv-x="1153" d="M-4 -223h1161v-86h-1161v86z" />
<glyph unicode="`" horiz-adv-x="1024" d="M346 1440l119 57l199 -258l-66 -43l-250 219z" />
<glyph unicode="a" horiz-adv-x="1230" d="M127 256v55q0 68 14.5 117t37 78.5t62.5 48.5t79 27t98 14q87 10 450 41v59q0 153 -57.5 207.5t-196.5 54.5q-175 0 -295 -43l-12 -139h-114v234q87 29 210.5 46t214.5 17h68q179 0 258.5 -91.5t79.5 -272.5v-588q125 -8 154 -10v-111h-310v158q-118 -93 -206.5 -133.5 t-210.5 -40.5h-37q-83 0 -134 10.5t-87.5 40.5t-51 83t-14.5 138zM287 276q0 -103 39 -139.5t149 -36.5h35q95 0 175.5 39.5t182.5 124.5v287q-284 -25 -391 -39q-111 -14 -150.5 -51.5t-39.5 -136.5v-48z" />
<glyph unicode="b" horiz-adv-x="1243" d="M82 1323v111h299v-494q129 79 210.5 106t211.5 27h37q137 0 212.5 -84.5t75.5 -251.5v-395q0 -183 -85.5 -270.5t-237.5 -87.5h-37q-171 0 -543 24v1305q-51 2 -143 10zM381 121q156 -19 342 -19h35q215 0 215 271v299q0 144 -44.5 212t-146.5 68h-39q-104 0 -177.5 -23 t-184.5 -95v-713z" />
<glyph unicode="c" horiz-adv-x="1097" d="M117 375v309q0 190 106 289.5t301 99.5h74q194 0 385 -78v-262h-117l-16 170q-71 31 -133 41t-172 10q-136 0 -204.5 -68.5t-68.5 -213.5v-301q0 -139 68.5 -203t202.5 -64h75q188 0 250 125l9 23h120v-111q-59 -76 -158.5 -118.5t-213.5 -42.5h-109q-204 0 -301.5 98 t-97.5 297z" />
<glyph unicode="d" horiz-adv-x="1226" d="M117 342v389q0 167 78 254.5t213 87.5h38q130 0 202 -22.5t214 -102.5v373q-47 5 -172 12v101h328v-1313q132 -8 156 -10v-111h-312v166q-122 -96 -211.5 -139t-210.5 -43h-37q-286 0 -286 358zM272 385q0 -142 47 -205t152 -63h35q95 0 172.5 33.5t183.5 113.5v576 q-125 70 -186.5 87t-169.5 17h-39q-102 0 -148.5 -63.5t-46.5 -188.5v-307z" />
<glyph unicode="e" horiz-adv-x="1155" d="M117 399v263q0 202 112.5 306.5t325.5 104.5h68q209 0 312 -97t103 -294v-227h-770v-99q0 -130 71 -195t204 -65h88q189 0 250 121l8 27h119v-103q-57 -80 -158.5 -120.5t-218.5 -40.5h-82q-225 0 -328.5 101.5t-103.5 317.5zM268 565h629v140q0 126 -73 192t-206 66h-63 q-136 0 -211.5 -71t-75.5 -202v-125z" />
<glyph unicode="f" horiz-adv-x="774" d="M84 934v102q27 1 80.5 4t79.5 4v127q0 112 46 179.5t150 91.5q41 8 226 37l14 -107q-100 -20 -178 -43q-62 -18 -82.5 -59t-20.5 -121v-100h320v-115h-320v-811q86 -3 187 -12v-111h-498v111q25 2 77 5t79 5v813h-160z" />
<glyph unicode="g" horiz-adv-x="1282" d="M90 -80q0 137 152 242q-54 17 -76.5 47.5t-22.5 85.5v37q0 58 32 95t108 83q-86 68 -86 217v53q0 164 98 228.5t321 64.5h54q144 0 223 -24h311v-97q-33 -3 -71 -6.5t-61.5 -5.5t-47.5 -4q51 -51 51 -158v-67q0 -159 -94 -224t-295 -65h-90q-167 0 -242 47 q-32 -20 -43 -27.5t-25.5 -21t-18 -26t-3.5 -32.5v-26q0 -47 40.5 -63.5t150.5 -16.5h422q158 0 218 -53t60 -191v-53q0 -159 -116 -228t-339 -69h-233q-155 0 -236 22t-111 66.5t-30 128.5v41zM223 -39v-35q0 -91 45 -122t185 -31h262q156 0 229.5 39.5t73.5 134.5v37 q0 92 -33.5 121.5t-134.5 29.5h-387q-73 0 -123 6q-117 -87 -117 -180zM348 725q0 -109 66.5 -148.5t210.5 -39.5h43q133 0 196.5 39t63.5 149v57q0 110 -61 150.5t-191 40.5h-51q-143 0 -210 -40.5t-67 -150.5v-57z" />
<glyph unicode="h" horiz-adv-x="1370" d="M88 0v111q124 9 156 10v1192q-53 2 -144 10v111h299v-572q131 101 242 156t231 55h23q137 0 194.5 -60.5t57.5 -217.5v-672q38 -4 170 -12v-111h-326v717q0 139 -31 182t-135 43h-24q-93 0 -190 -46t-212 -132v-643q32 -1 156 -10v-111h-467z" />
<glyph unicode="i" horiz-adv-x="608" d="M88 0v111q124 9 156 10v807q-53 2 -144 10v111h299v-928q32 -1 156 -10v-111h-467zM219 1339q0 41 28 66t70 25q41 0 69 -25.5t28 -65.5q0 -39 -28 -63.5t-69 -24.5q-42 0 -70 24.5t-28 63.5z" />
<glyph unicode="j" horiz-adv-x="546" d="M23 -231q9 11 30.5 32t36.5 39q82 89 111.5 152.5t29.5 167.5v768q-49 2 -147 10v111h303v-891q0 -128 -34 -197t-148 -174q-52 -45 -117 -90zM203 1339q0 41 28 66t70 25t69 -25t27 -66q0 -39 -27 -63.5t-69 -24.5t-70 24.5t-28 63.5z" />
<glyph unicode="k" horiz-adv-x="1290" d="M88 0v111q124 9 156 10v1192q-53 2 -144 10v111h299v-807h289l225 305q-23 0 -70 2.5t-65 3.5v111h451v-111q-133 -9 -148 -10l-278 -361l295 -448l135 -10v-109h-299v109l-250 391h-285v-379q32 -1 156 -10v-111h-467z" />
<glyph unicode="l" horiz-adv-x="630" d="M88 0v111q124 9 156 10v1192q-53 2 -144 10v111h299v-1313q32 -1 156 -10v-111h-467z" />
<glyph unicode="m" horiz-adv-x="2070" d="M88 0v111q124 9 156 10v807q-53 2 -144 10v111h299v-179q120 100 224 151.5t223 51.5h22q121 0 176 -45t68 -168q125 104 232 158.5t229 54.5h22q137 0 194.5 -60.5t57.5 -217.5v-672q49 -5 170 -12v-111h-325v717q0 139 -31 182t-133 43h-25q-94 0 -183.5 -43.5 t-199.5 -132.5v-643q49 -5 170 -12v-111h-325v717q0 139 -31 182t-133 43h-25q-92 0 -179.5 -43t-197.5 -131v-647q32 -1 156 -10v-111h-467z" />
<glyph unicode="n" horiz-adv-x="1370" d="M88 0v111q124 9 156 10v807q-53 2 -144 10v111h299v-187q131 101 242 156t231 55h23q137 0 194.5 -60.5t57.5 -217.5v-672q41 -5 170 -12v-111h-326v717q0 139 -31 182t-135 43h-24q-93 0 -190 -46t-212 -132v-643q32 -1 156 -10v-111h-467z" />
<glyph unicode="o" horiz-adv-x="1202" d="M117 397v254q0 215 105.5 318.5t328.5 103.5h106q219 0 323.5 -104t104.5 -318v-254q0 -211 -105 -314t-323 -103h-106q-222 0 -328 102.5t-106 314.5zM272 360q0 -129 70 -195.5t205 -66.5h106q135 0 206 66.5t71 195.5v330q0 130 -71 197t-206 67h-106q-135 0 -205 -67 t-70 -197v-330z" />
<glyph unicode="p" horiz-adv-x="1261" d="M88 -240q20 1 52 4t57 4.5t47 2.5v1157q-53 2 -144 10v111h299v-148q124 88 220 130t217 42h38q136 0 204.5 -85.5t68.5 -270.5v-395q0 -168 -76 -253t-213 -85h-39q-127 0 -209 26t-211 99v-338q58 -2 181 -11v-110h-492v110zM399 225q112 -72 185 -95.5t176 -23.5h41 q101 0 145.5 66t44.5 209v291q0 145 -41 207.5t-143 62.5h-35q-98 0 -183 -34.5t-190 -112.5v-570z" />
<glyph unicode="q" horiz-adv-x="1212" d="M117 322v395q0 183 84.5 269.5t238.5 86.5h35q57 0 104.5 -1t110 -4t86 -4t114.5 -7.5t114 -7.5v-1278q27 -1 82.5 -5.5t72.5 -5.5v-110h-483v110q36 2 91.5 6t80.5 5v338q-133 -76 -207 -100.5t-199 -24.5h-39q-135 0 -210.5 85t-75.5 253zM272 387q0 -144 44 -212.5 t145 -68.5h41q101 0 167 22.5t179 96.5v705q-168 18 -328 18h-35q-106 0 -159.5 -65t-53.5 -205v-291z" />
<glyph unicode="r" horiz-adv-x="890" d="M88 0v111q124 9 156 10v807q-53 2 -144 10v111h299v-201q89 113 169 162t188 49h84v-144l-127 -6q-93 0 -166.5 -37t-147.5 -129v-622q22 -1 47 -2.5t59 -4t58 -3.5v-111h-475z" />
<glyph unicode="s" horiz-adv-x="1095" d="M121 102v209h119l8 -127q22 -38 78 -60t101 -27t91 -5h70q124 0 181.5 45t57.5 150v28q0 23 -3 40.5t-13 33t-20 26t-33.5 21.5t-44 18t-61 16t-74 16t-93.5 18q-219 41 -291.5 95t-72.5 177v37q0 133 97.5 196.5t293.5 63.5h33q85 0 204.5 -19.5t202.5 -58.5v-225h-125 l-14 145q-109 52 -278 52q-142 0 -207.5 -37.5t-65.5 -120.5v-16q0 -83 53.5 -111t247.5 -66q35 -6 53 -10q211 -41 285 -93.5t74 -178.5v-47q0 -162 -92.5 -234.5t-282.5 -72.5h-80q-67 0 -130 6t-147 35.5t-122 80.5z" />
<glyph unicode="t" horiz-adv-x="794" d="M61 930v119h111q24 0 31.5 9.5t7.5 33.5v262q90 12 145 14v-319h314v-119h-314v-602q0 -128 27.5 -171.5t110.5 -43.5h18q121 0 195 6v-92q-130 -47 -265 -47h-20q-119 0 -170 64t-51 216v670h-140z" />
<glyph unicode="u" horiz-adv-x="1368" d="M84 938v111h326v-693q0 -138 30 -180.5t133 -42.5h25q92 0 188.5 45.5t212.5 130.5v619q-9 1 -27 2t-61 3.5t-82 4.5v111h326v-928q124 -7 160 -10v-111h-316v203q-66 -47 -112 -76.5t-108.5 -62t-125 -48.5t-125.5 -16h-24q-142 0 -196 58t-54 221v649q-10 1 -29.5 2 t-60 3.5t-80.5 4.5z" />
<glyph unicode="v" horiz-adv-x="1292" d="M33 938v111h463v-111q-17 -1 -73 -3.5t-83 -2.5l301 -791h2l320 789q-96 4 -150 8v111h447v-111q-93 -9 -166 -12l-377 -926h-164l-375 928q-30 1 -145 10z" />
<glyph unicode="w" horiz-adv-x="1792" d="M35 938v111h438v-111q-32 -1 -83.5 -4t-70.5 -4l220 -778h4l284 897h127l291 -897h2l223 778q-99 4 -153 8v111h438v-111q-55 -4 -149 -8l-273 -930h-184l-260 805l-264 -805h-179l-272 930q-86 4 -139 8z" />
<glyph unicode="x" horiz-adv-x="1200" d="M35 0v111q21 2 63.5 5t63.5 5l311 411l-287 396q-33 1 -151 10v111h469v-111l-144 -6l244 -346h2l240 346q-23 0 -70.5 3t-58.5 3v111h446v-111q-122 -8 -166 -8l-292 -395l311 -414q14 0 147 -10v-111h-467v111l148 6l-273 368h-2l-254 -366q110 -4 168 -8v-111h-448z " />
<glyph unicode="y" horiz-adv-x="1335" d="M33 938v111h479v-111q-73 -5 -176 -8l317 -783h4l338 783q-90 4 -145 8v111h453v-111q-35 -3 -93.5 -7t-72.5 -5l-482 -1116q49 0 131 -7v-108h-487v108q105 9 201 9l73 168l-403 950q-86 4 -137 8z" />
<glyph unicode="z" horiz-adv-x="1130" d="M84 0v94q0 32 31 60l723 780h-609l-18 -205h-90l4 320h897v-113l-739 -817h628l33 209h88l-10 -328h-938z" />
<glyph unicode="{" horiz-adv-x="724" d="M66 543v116l180 15v403q0 82 23 145t73 111.5t111 84.5t153 75l33 -72q-146 -78 -200 -147.5t-54 -196.5v-983q0 -127 54 -196.5t200 -147.5l-33 -72q-93 40 -153.5 76t-110.5 84.5t-73 111t-23 144.5v436z" />
<glyph unicode="|" horiz-adv-x="477" d="M199 -258v1853h77v-1853h-77z" />
<glyph unicode="}" horiz-adv-x="724" d="M86 -250q146 78 200 147.5t54 196.5v983q0 127 -54 196.5t-200 147.5l33 72q92 -39 153 -75t111 -84.5t73 -111.5t23 -145v-403l180 -15v-116l-180 -13v-436q0 -82 -23 -144.5t-73 -111t-110.5 -84.5t-153.5 -76z" />
<glyph unicode="&#xa1;" horiz-adv-x="454" d="M127 1198q0 92 100 92q101 0 101 -92q0 -94 -101 -94q-100 0 -100 94zM141 25l41 854h90l41 -854v-177h-172v177z" />
<glyph unicode="&#xa2;" horiz-adv-x="1097" d="M117 375v309q0 184 100 283.5t285 105.5v139h121v-139q187 -6 360 -78v-262h-117l-16 170q-65 28 -120.5 39t-143.5 12v-850h32q188 0 250 125l9 23h120v-111q-59 -76 -158.5 -118.5t-213.5 -42.5h-7v-127h-122v127q-194 4 -286.5 102t-92.5 293zM272 371 q0 -137 65.5 -201t194.5 -66v850q-130 -3 -195 -71.5t-65 -210.5v-301z" />
<glyph unicode="&#xa3;" horiz-adv-x="1239" d="M66 584v96h202l-45 278q-18 112 -1.5 203.5t62 156t131 99.5t206.5 35h92q229 0 434 -82l-17 -328h-120l-17 226q-56 25 -132.5 37.5t-111.5 13t-122 0.5q-145 0 -210.5 -92t-33.5 -264l49 -283h469l-16 -96h-439l9 -45q5 -47 5 -85t-13.5 -76.5t-30 -69t-43.5 -63 t-53.5 -59t-61.5 -55.5h782l21 254h110v-385h-1093v117q53 44 89 82.5t69 89.5t44.5 111t0.5 128l-9 56h-206z" />
<glyph unicode="&#xa5;" horiz-adv-x="1447" d="M43 1317v117h492v-117l-156 -6l348 -666h4l348 664q-107 4 -161 8v117h487v-117q-117 -8 -164 -10l-373 -674h308v-72h-349l-24 -45v-108h373v-72h-373v-209q49 -2 170 -10v-117h-508v117q128 8 174 10v209h-373v72h373v102l-29 51h-344v72h305l-370 674q-44 2 -158 10z " />
<glyph unicode="&#xa7;" horiz-adv-x="1396" d="M143 723v55q0 65 48 116.5t135 84.5q-48 25 -68 67t-20 107v16q0 102 35 161.5t125.5 90.5t250.5 31h35q250 0 453 -96v-248h-111l-12 164q-54 31 -146 49t-190 18h-29q-110 0 -171 -21t-81 -56t-20 -95v-14q0 -68 32.5 -97t122.5 -44l453 -74q157 -27 213.5 -72.5 t56.5 -152.5v-58q0 -75 -33.5 -123.5t-113.5 -76.5q41 -25 55.5 -65t14.5 -109v-15q0 -151 -97 -216.5t-346 -65.5h-37q-247 0 -450 96v248h114l13 -164q122 -70 321 -70h39q166 0 233.5 43t67.5 131v13q0 72 -26 100t-113 43l-483 74q-157 27 -214 72.5t-57 152.5zM270 737 q0 -63 38 -91.5t145 -45.5l485 -74q14 -2 76 -16q70 25 91 59t21 88v41q2 62 -35.5 90.5t-144.5 47.5l-467 75q-13 2 -71 17q-66 -26 -101 -65.5t-37 -84.5v-41z" />
<glyph unicode="&#xa8;" horiz-adv-x="1024" d="M244 1339q0 34 25 56t61 22t60 -21.5t24 -56.5q0 -33 -24 -54t-60 -21t-61 21t-25 54zM610 1339q0 35 24 56.5t60 21.5t60 -21.5t24 -56.5q0 -33 -24 -54t-60 -21t-60 21t-24 54z" />
<glyph unicode="&#xa9;" horiz-adv-x="1771" d="M137 717q0 352 198 549.5t550 197.5t549.5 -197.5t197.5 -549.5t-197.5 -550t-549.5 -198t-550 198t-198 550zM209 717q0 -321 179.5 -502.5t496.5 -181.5q318 0 498 181.5t180 502.5t-180 502.5t-498 181.5q-317 0 -496.5 -181.5t-179.5 -502.5zM514 610v181 q0 174 82.5 256.5t245.5 82.5h61q138 0 297 -59v-199h-90l-18 127q-15 6 -29.5 11.5t-25.5 9t-25 6.5t-22.5 5t-23 3.5t-20.5 2t-22.5 1t-22 0.5h-25.5h-26q-112 0 -167.5 -59t-55.5 -191v-176q0 -110 57 -168.5t166 -58.5h45q96 0 141.5 26.5t89.5 102.5h91v-82 q-58 -76 -132 -109.5t-182 -33.5h-63q-158 0 -241 82.5t-85 238.5z" />
<glyph unicode="&#xaa;" horiz-adv-x="1034" d="M111 786v48q0 121 52 170t183 63q186 15 359 27v53q0 127 -44 170t-157 43q-138 0 -244 -35l-8 -121h-88v195q70 24 169.5 38.5t170.5 14.5h53q144 0 206 -74t62 -221v-475q82 -4 127 -8v-86h-247v121q-68 -49 -107 -73t-99.5 -43.5t-127.5 -19.5h-29q-68 0 -108.5 7.5 t-70 30.5t-41 64.5t-11.5 110.5zM231 807q0 -86 30 -113.5t124 -27.5h29q79 0 142.5 26t148.5 88v250q-128 -7 -324 -29q-84 -10 -117 -44t-33 -109v-41z" />
<glyph unicode="&#xab;" horiz-adv-x="1011" d="M121 537v12l352 399h92v-53l-286 -346v-12l286 -349v-51h-92zM483 537v12l353 399h92v-53l-287 -346v-12l287 -349v-51h-92z" />
<glyph unicode="&#xad;" horiz-adv-x="763" d="M100 553v131h564v-131h-564z" />
<glyph unicode="&#xae;" horiz-adv-x="858" d="M51 1085q0 179 99.5 279t277.5 100q180 0 279.5 -100t99.5 -279q0 -180 -99.5 -280t-279.5 -100q-179 0 -278 100t-99 280zM100 1085q0 -161 87 -246t241 -85q156 0 242 85t86 246q0 160 -86.5 246t-241.5 86q-154 0 -241 -86t-87 -246zM256 1245v47h205q61 0 94 -30 t33 -86v-17q0 -86 -68 -104q33 -45 53 -105q3 -1 56 -6v-43h-115v25q-16 63 -57 118h-90v-94l49 -4v-45h-158v45l49 4v291q-15 0 -51 4zM367 1098h94q33 0 48 14t15 47v17q0 65 -69 65h-88v-143z" />
<glyph unicode="&#xaf;" horiz-adv-x="1024" d="M264 1245v98h496v-98h-496z" />
<glyph unicode="&#xb0;" horiz-adv-x="815" d="M117 1122v84q0 125 59 186.5t193 61.5h80q133 0 192 -62t59 -186v-84q-2 -124 -60 -184.5t-191 -60.5h-80q-133 0 -192.5 61t-59.5 184zM223 1128q0 -81 34.5 -119t121.5 -38h57q86 0 120 38t36 119v72q0 84 -34.5 123t-121.5 39h-57q-87 0 -121.5 -39t-34.5 -123v-72z " />
<glyph unicode="&#xb2;" horiz-adv-x="819" d="M100 604v86q0 144 38 214t136 110q61 24 175 61q87 29 121 58.5t34 76.5v29q0 70 -35 94.5t-135 24.5q-144 0 -215 -31l-10 -106h-86v176q86 31 153.5 42t157.5 11q155 0 217 -44.5t62 -162.5v-33q0 -76 -43.5 -128t-151.5 -87q-8 -3 -78.5 -25t-91.5 -30 q-61 -23 -89.5 -47.5t-41 -68t-12.5 -126.5h422l10 146h78v-240h-615z" />
<glyph unicode="&#xb3;" horiz-adv-x="759" d="M55 641v182h82l10 -110q128 -25 222 -25q104 0 143 29.5t39 109.5v25q0 74 -33 100.5t-108 26.5h-199v84h199q74 0 107.5 29.5t33.5 107.5v21q0 82 -38 110.5t-144 28.5q-102 0 -213 -29l-11 -108h-75v178q162 49 297 49q168 0 230 -46t62 -173v-23q0 -83 -24.5 -130.5 t-83.5 -65.5q60 -12 84 -51.5t24 -118.5v-25q0 -124 -63 -170.5t-229 -46.5q-132 0 -312 41z" />
<glyph unicode="&#xb4;" horiz-adv-x="1024" d="M362 1239l199 258l119 -57l-2 -25l-250 -219z" />
<glyph unicode="&#xb6;" horiz-adv-x="1126" d="M66 1014v41q0 117 27 193t86 116.5t132 55t185 14.5h565v-117q-78 -9 -152 -12v-1489h-118v1507h-146v-1507h-123v825h-26q-109 0 -182.5 15.5t-131.5 56t-86.5 115t-29.5 186.5z" />
<glyph unicode="&#xb7;" horiz-adv-x="391" d="M96 590q0 94 101 94q100 0 100 -94q0 -92 -100 -92q-101 0 -101 92z" />
<glyph unicode="&#xb8;" horiz-adv-x="1024" d="M332 -285h200q35 0 55.5 19t20.5 51v8q0 37 -18 53.5t-62 16.5h-149l35 137h57l-10 -78h84q75 0 109 -29t34 -94v-18q0 -68 -38.5 -99.5t-117.5 -33.5q-89 0 -200 18v49z" />
<glyph unicode="&#xb9;" horiz-adv-x="659" d="M94 1292v76l262 82h74v-756q104 -4 166 -8v-82h-483v82q157 9 196 10v652z" />
<glyph unicode="&#xba;" horiz-adv-x="958" d="M92 897v225q0 169 84.5 249.5t261.5 80.5h86q175 0 258.5 -80.5t83.5 -249.5v-225q-2 -166 -85.5 -246t-256.5 -80h-86q-176 0 -260 80t-86 246zM213 881q0 -215 223 -215h86q114 0 168.5 53t54.5 162v262q0 109 -55 163t-168 54h-86q-223 0 -223 -217v-262z" />
<glyph unicode="&#xbb;" horiz-adv-x="1011" d="M145 137v51l287 349v12l-287 346v53h93l352 -399v-12l-352 -400h-93zM506 137v51l287 349v12l-287 346v53h92l352 -399v-12l-352 -400h-92z" />
<glyph unicode="&#xbc;" horiz-adv-x="1654" d="M94 1292v76l262 82h74v-756q120 -4 180 -8v-82h-512v82q147 8 211 10v652zM252 -12l549 735l512 727h78l-537 -727l-524 -735h-78zM797 225v84l471 533h121v-533h163v-76l-163 -6v-139q29 -1 159 -10v-78h-458v78q169 10 178 10v137h-471zM899 309h369v434z" />
<glyph unicode="&#xbd;" horiz-adv-x="1736" d="M94 1292v76l262 82h74v-756q120 -4 180 -8v-82h-512v82q147 8 211 10v652zM240 -12l548 735l512 727h78l-536 -727l-525 -735h-77zM1018 0v86q0 147 34 216t130 108q81 32 184 61q86 28 121 58t35 77v29q0 70 -35 94.5t-135 24.5q-144 0 -215 -31l-11 -107h-86v177 q86 31 154 42t158 11q155 0 216.5 -44.5t61.5 -162.5v-49q0 -64 -43.5 -114.5t-150.5 -84.5q-13 -4 -46 -15t-73 -23.5t-51 -16.5q-86 -32 -112 -78t-26 -168h416l10 150h78v-240h-614z" />
<glyph unicode="&#xbe;" horiz-adv-x="1732" d="M55 641v182h82l10 -110q128 -25 222 -25q104 0 143 29.5t39 109.5v25q0 75 -33.5 103t-107.5 28h-199v80h199q74 0 107.5 29.5t33.5 107.5v21q0 82 -38 110.5t-144 28.5q-102 0 -213 -29l-11 -108h-75v178q162 49 297 49q168 0 230 -46t62 -173v-23q0 -83 -24.5 -130.5 t-83.5 -65.5q60 -12 84 -51.5t24 -118.5v-25q0 -124 -63 -170.5t-229 -46.5q-132 0 -312 41zM317 -12l549 735l512 727h78l-536 -727l-525 -735h-78zM877 225v84l471 533h120v-533h164v-76l-164 -6v-139q31 -1 160 -10v-78h-459v78q167 10 179 10v137h-471zM979 309h369v434 z" />
<glyph unicode="&#xbf;" horiz-adv-x="1019" d="M80 195v59q0 119 39 182.5t131 100.5q55 22 155 59t142 53v238h121l22 -320q-191 -69 -319 -121q-74 -31 -103.5 -74.5t-29.5 -111.5v-57q0 -77 11.5 -122t43.5 -74t84 -39.5t139 -10.5q101 0 171 16t153 56l16 159h121v-254q-142 -61 -240 -82.5t-235 -21.5 q-236 0 -329 79t-93 286zM506 1198q0 92 100 92q101 0 101 -92q0 -94 -101 -94q-100 0 -100 94z" />
<glyph unicode="&#xc0;" d="M51 0v117q165 10 189 10l407 1180q-9 1 -38 2.5t-63.5 3.5t-72.5 4v117h449l454 -1307q27 0 197 -10v-117h-531v117q110 8 156 8l-108 311h-584l-103 -309q14 -1 144 -10v-117h-496zM541 573h512l-254 725h-6zM578 1780l118 57l199 -258l-66 -43l-249 219z" />
<glyph unicode="&#xc1;" d="M51 0v117q165 10 189 10l407 1180q-9 1 -38 2.5t-63.5 3.5t-72.5 4v117h449l454 -1307q27 0 197 -10v-117h-531v117q110 8 156 8l-108 311h-584l-103 -309q14 -1 144 -10v-117h-496zM541 573h512l-254 725h-6zM674 1577l203 262l122 -59l-2 -25l-256 -223z" />
<glyph unicode="&#xc2;" d="M51 0v117q165 10 189 10l407 1180q-9 1 -38 2.5t-63.5 3.5t-72.5 4v117h449l454 -1307q27 0 197 -10v-117h-531v117q110 8 156 8l-108 311h-584l-103 -309q14 -1 144 -10v-117h-496zM514 1585l234 238h98l231 -238l-51 -43l-229 182l-232 -182zM541 573h512l-254 725h-6z " />
<glyph unicode="&#xc3;" d="M51 0v117q165 10 189 10l407 1180q-9 1 -38 2.5t-63.5 3.5t-72.5 4v117h449l454 -1307q27 0 197 -10v-117h-531v117q110 8 156 8l-108 311h-584l-103 -309q14 -1 144 -10v-117h-496zM455 1602l133 141q51 57 100 57q26 0 56 -22t75.5 -63.5t83.5 -67.5l187 147l49 -41 l-142 -149q-45 -48 -94 -48q-24 0 -52.5 21.5t-74 63t-86.5 69.5l-186 -149zM541 573h512l-254 725h-6z" />
<glyph unicode="&#xc4;" d="M51 0v117q165 10 189 10l407 1180q-9 1 -38 2.5t-63.5 3.5t-72.5 4v117h449l454 -1307q27 0 197 -10v-117h-531v117q110 8 156 8l-108 311h-584l-103 -309q14 -1 144 -10v-117h-496zM518 1679q0 36 25.5 59t64.5 23q37 0 62.5 -23t25.5 -59t-25.5 -59t-62.5 -23 q-39 0 -64.5 23t-25.5 59zM541 573h512l-254 725h-6zM897 1679q0 36 25.5 59t62.5 23q39 0 64.5 -23t25.5 -59t-25.5 -59t-64.5 -23q-37 0 -62.5 23t-25.5 59z" />
<glyph unicode="&#xc5;" d="M51 0v117q165 10 189 10l407 1180q-9 1 -38 2.5t-63.5 3.5t-72.5 4v117h449l454 -1307q27 0 197 -10v-117h-531v117q110 8 156 8l-108 311h-584l-103 -309q14 -1 144 -10v-117h-496zM541 573h512l-254 725h-6zM631 1667v39q0 66 38.5 102.5t106.5 36.5h41q66 0 105 -37.5 t39 -101.5v-39q0 -66 -39 -103.5t-105 -37.5h-41q-66 0 -105.5 37.5t-39.5 103.5zM700 1669q0 -36 22 -57t58 -21h31q34 0 56.5 21t23.5 57v35q0 38 -22 59t-58 21h-31q-36 0 -58 -21t-22 -59v-35z" />
<glyph unicode="&#xc6;" horiz-adv-x="2220" d="M51 0v117q139 8 187 10l675 1176q-45 4 -186 14v117h1333v-359h-104l-21 228h-614v-508h453v-133h-453v-531h637l20 227h105v-358h-1098v117q36 2 174 10v328h-565l-188 -330q22 -1 71 -4t76 -4v-117h-502zM641 547h518v756h-92z" />
<glyph unicode="&#xc7;" horiz-adv-x="1339" d="M143 442v506q0 249 122 376.5t360 127.5h84q282 0 487 -82v-344h-131l-25 242q-58 24 -129.5 35.5t-123 13.5t-154.5 2q-161 0 -244.5 -92.5t-83.5 -272.5v-520q0 -317 328 -317h110q127 0 209.5 49.5t128.5 152.5h131v-120q-71 -105 -192.5 -162t-265.5 -57h-117l-8 -58 h84q75 0 109 -29t34 -94v-18q0 -68 -38.5 -99.5t-117.5 -33.5q-89 0 -200 18v49h200q35 0 55.5 19t20.5 51v8q0 37 -18 53.5t-62 16.5h-149l31 117q-219 9 -326.5 121.5t-108.5 340.5z" />
<glyph unicode="&#xc8;" horiz-adv-x="1320" d="M84 1317v117h1077v-359h-104l-21 228h-614v-504h452v-142h-452v-526h637l20 227h105v-358h-1098v117q36 2 174 10v1180q-9 1 -38 2t-63.5 3t-74.5 5zM436 1780l119 57l199 -258l-66 -43l-250 219z" />
<glyph unicode="&#xc9;" horiz-adv-x="1320" d="M84 1317v117h1077v-359h-104l-21 228h-614v-504h452v-142h-452v-526h637l20 227h105v-358h-1098v117q36 2 174 10v1180q-9 1 -38 2t-63.5 3t-74.5 5zM530 1577l203 262l123 -59l-2 -25l-256 -223z" />
<glyph unicode="&#xca;" horiz-adv-x="1320" d="M84 1317v117h1077v-359h-104l-21 228h-614v-504h452v-142h-452v-526h637l20 227h105v-358h-1098v117q36 2 174 10v1180q-9 1 -38 2t-63.5 3t-74.5 5zM371 1585l233 238h98l232 -238l-51 -43l-230 182l-231 -182z" />
<glyph unicode="&#xcb;" horiz-adv-x="1320" d="M84 1317v117h1077v-359h-104l-21 228h-614v-504h452v-142h-452v-526h637l20 227h105v-358h-1098v117q36 2 174 10v1180q-9 1 -38 2t-63.5 3t-74.5 5zM375 1679q0 36 25.5 59t64.5 23q37 0 62.5 -23t25.5 -59t-25.5 -59t-62.5 -23q-39 0 -64.5 23t-25.5 59zM754 1679 q0 36 25.5 59t62.5 23q39 0 64.5 -23t25.5 -59t-25.5 -59t-64.5 -23q-37 0 -62.5 23t-25.5 59z" />
<glyph unicode="&#xcc;" horiz-adv-x="675" d="M84 1317v117h510v-117q-121 -8 -172 -10v-1180q51 -2 172 -10v-117h-508v117q128 8 174 10v1180q-59 2 -176 10zM121 1780l119 57l198 -258l-65 -43l-250 219z" />
<glyph unicode="&#xcd;" horiz-adv-x="675" d="M84 1317v117h510v-117q-121 -8 -172 -10v-1180q51 -2 172 -10v-117h-508v117q128 8 174 10v1180q-59 2 -176 10zM215 1577l203 262l123 -59l-2 -25l-256 -223z" />
<glyph unicode="&#xce;" horiz-adv-x="675" d="M57 1585l234 238h98l232 -238l-52 -43l-229 182l-231 -182zM84 1317v117h510v-117q-121 -8 -172 -10v-1180q51 -2 172 -10v-117h-508v117q128 8 174 10v1180q-59 2 -176 10z" />
<glyph unicode="&#xcf;" horiz-adv-x="675" d="M61 1679q0 36 26 59t65 23q37 0 62.5 -23t25.5 -59t-25.5 -59t-62.5 -23q-39 0 -65 23t-26 59zM84 1317v117h510v-117q-121 -8 -172 -10v-1180q51 -2 172 -10v-117h-508v117q128 8 174 10v1180q-59 2 -176 10zM440 1679q0 36 25.5 59t62.5 23q39 0 64.5 -23t25.5 -59 t-25.5 -59t-64.5 -23q-37 0 -62.5 23t-25.5 59z" />
<glyph unicode="&#xd0;" horiz-adv-x="1492" d="M84 1317v117h795q239 0 356 -115t117 -348v-514q-2 -230 -118.5 -343.5t-354.5 -113.5h-793v117q38 3 99 6.5t83 5.5v522h-182v101h182v555q-135 7 -184 10zM430 135h434q160 0 243 80.5t85 235.5v530q0 156 -84 236.5t-244 80.5h-434v-546h176v-101h-176v-516z" />
<glyph unicode="&#xd1;" horiz-adv-x="1609" d="M84 1317v117h342l776 -1188v1063q-104 4 -160 8v117h484v-117q-123 -8 -178 -10v-1307h-179l-755 1176v-1051q98 -4 151 -8v-117h-479v117q129 8 182 10v1178zM461 1602l133 141q51 57 100 57q26 0 56 -22t75.5 -63.5t83.5 -67.5l187 147l49 -41l-141 -149 q-45 -48 -95 -48q-24 0 -52.5 21.5t-74 63t-86.5 69.5l-186 -149z" />
<glyph unicode="&#xd2;" horiz-adv-x="1466" d="M141 479v467q0 235 134 370.5t374 135.5h172q238 0 371 -135.5t133 -370.5v-465q0 -232 -134 -366.5t-370 -134.5h-172q-239 0 -372.5 134t-135.5 365zM303 475q0 -166 93.5 -257t260.5 -91h150q167 0 261 91t95 257v479q0 168 -94.5 260.5t-261.5 92.5h-150 q-165 0 -259.5 -95t-94.5 -258v-479zM514 1780l119 57l198 -258l-65 -43l-250 219z" />
<glyph unicode="&#xd3;" horiz-adv-x="1466" d="M141 479v467q0 235 134 370.5t374 135.5h172q238 0 371 -135.5t133 -370.5v-465q0 -232 -134 -366.5t-370 -134.5h-172q-239 0 -372.5 134t-135.5 365zM303 475q0 -166 93.5 -257t260.5 -91h150q167 0 261 91t95 257v479q0 168 -94.5 260.5t-261.5 92.5h-150 q-165 0 -259.5 -95t-94.5 -258v-479zM610 1577l203 262l123 -59l-2 -25l-256 -223z" />
<glyph unicode="&#xd4;" horiz-adv-x="1466" d="M141 479v467q0 235 134 370.5t374 135.5h172q238 0 371 -135.5t133 -370.5v-465q0 -232 -134 -366.5t-370 -134.5h-172q-239 0 -372.5 134t-135.5 365zM303 475q0 -166 93.5 -257t260.5 -91h150q167 0 261 91t95 257v479q0 168 -94.5 260.5t-261.5 92.5h-150 q-165 0 -259.5 -95t-94.5 -258v-479zM451 1585l233 238h98l232 -238l-51 -43l-230 182l-231 -182z" />
<glyph unicode="&#xd5;" horiz-adv-x="1466" d="M141 479v467q0 235 134 370.5t374 135.5h172q238 0 371 -135.5t133 -370.5v-465q0 -232 -134 -366.5t-370 -134.5h-172q-239 0 -372.5 134t-135.5 365zM303 475q0 -166 93.5 -257t260.5 -91h150q167 0 261 91t95 257v479q0 168 -94.5 260.5t-261.5 92.5h-150 q-165 0 -259.5 -95t-94.5 -258v-479zM391 1602l133 141q51 57 101 57q26 0 56 -22t75.5 -63.5t83.5 -67.5l186 147l49 -41l-141 -149q-45 -48 -94 -48q-24 0 -52.5 21.5t-74 63t-86.5 69.5l-187 -149z" />
<glyph unicode="&#xd6;" horiz-adv-x="1466" d="M141 479v467q0 235 134 370.5t374 135.5h172q238 0 371 -135.5t133 -370.5v-465q0 -232 -134 -366.5t-370 -134.5h-172q-239 0 -372.5 134t-135.5 365zM303 475q0 -166 93.5 -257t260.5 -91h150q167 0 261 91t95 257v479q0 168 -94.5 260.5t-261.5 92.5h-150 q-165 0 -259.5 -95t-94.5 -258v-479zM455 1679q0 36 25.5 59t64.5 23q37 0 62.5 -23t25.5 -59t-25.5 -59t-62.5 -23q-39 0 -64.5 23t-25.5 59zM834 1679q0 36 25.5 59t62.5 23q39 0 64.5 -23t25.5 -59t-25.5 -59t-64.5 -23q-37 0 -62.5 23t-25.5 59z" />
<glyph unicode="&#xd7;" horiz-adv-x="1198" d="M152 354l362 359l-362 358l90 92l360 -362l359 362l86 -86l-363 -358l363 -361l-91 -90l-360 363l-358 -363z" />
<glyph unicode="&#xd8;" horiz-adv-x="1466" d="M141 479v467q0 235 134 370.5t374 135.5h172q218 0 346 -113l111 156h76l-144 -199q115 -130 115 -350v-465q0 -232 -134 -366.5t-370 -134.5h-172q-190 0 -317 88l-96 -134h-74l123 172q-141 132 -144 373zM303 475q0 -149 76 -237l694 972q-94 97 -266 97h-150 q-165 0 -259.5 -95t-94.5 -258v-479zM422 197q92 -70 235 -70h150q167 0 261 91t95 257v479q0 120 -51 205z" />
<glyph unicode="&#xd9;" horiz-adv-x="1572" d="M80 1317v117h514v-117q-132 -8 -180 -10v-869q0 -156 83 -239.5t242 -83.5h121q158 0 242 83.5t84 239.5v871q-116 4 -172 8v117h479v-117q-25 -2 -77.5 -5t-78.5 -5v-856q0 -471 -475 -471h-131q-481 0 -481 471v856q-49 2 -170 10zM575 1780l119 57l199 -258l-66 -43 l-249 219z" />
<glyph unicode="&#xda;" horiz-adv-x="1572" d="M80 1317v117h514v-117q-132 -8 -180 -10v-869q0 -156 83 -239.5t242 -83.5h121q158 0 242 83.5t84 239.5v871q-116 4 -172 8v117h479v-117q-25 -2 -77.5 -5t-78.5 -5v-856q0 -471 -475 -471h-131q-481 0 -481 471v856q-49 2 -170 10zM672 1577l202 262l123 -59l-2 -25 l-256 -223z" />
<glyph unicode="&#xdb;" horiz-adv-x="1572" d="M80 1317v117h514v-117q-132 -8 -180 -10v-869q0 -156 83 -239.5t242 -83.5h121q158 0 242 83.5t84 239.5v871q-116 4 -172 8v117h479v-117q-25 -2 -77.5 -5t-78.5 -5v-856q0 -471 -475 -471h-131q-481 0 -481 471v856q-49 2 -170 10zM512 1585l233 238h99l231 -238 l-51 -43l-229 182l-232 -182z" />
<glyph unicode="&#xdc;" horiz-adv-x="1572" d="M80 1317v117h514v-117q-132 -8 -180 -10v-869q0 -156 83 -239.5t242 -83.5h121q158 0 242 83.5t84 239.5v871q-116 4 -172 8v117h479v-117q-25 -2 -77.5 -5t-78.5 -5v-856q0 -471 -475 -471h-131q-481 0 -481 471v856q-49 2 -170 10zM516 1679q0 36 25.5 59t64.5 23 q37 0 62.5 -23t25.5 -59t-25.5 -59t-62.5 -23q-39 0 -64.5 23t-25.5 59zM895 1679q0 36 25.5 59t62.5 23q39 0 64.5 -23t25.5 -59t-25.5 -59t-64.5 -23q-37 0 -62.5 23t-25.5 59z" />
<glyph unicode="&#xdd;" horiz-adv-x="1447" d="M43 1317v117h492v-117l-156 -6l348 -666h4l348 664q-107 4 -161 8v117h487v-117q-117 -8 -164 -10l-438 -791v-389q49 -2 170 -10v-117h-508v117q128 8 174 10v383l-438 797q-44 2 -158 10zM606 1577l203 262l123 -59l-2 -25l-256 -223z" />
<glyph unicode="&#xde;" horiz-adv-x="1298" d="M84 1317v117h338v-295h354q216 0 322 -94.5t106 -288.5v-103q-1 -188 -107 -279t-321 -91h-354v-283h-336v117q62 6 174 10v1180q-116 4 -176 10zM422 414h354q275 0 275 260v71q0 263 -275 263h-354v-594z" />
<glyph unicode="&#xdf;" horiz-adv-x="1384" d="M88 0v111q124 9 156 10v807l-144 10v111h144v34q0 198 118 306t351 108h98q373 0 373 -340v-76q0 -138 -45 -209t-133 -92q115 -16 176 -84t61 -211v-143q0 -182 -84 -267t-262 -85q-162 0 -356 33v100h317q232 0 232 225v144q0 124 -61 174.5t-177 50.5h-172 q-74 0 -74 49v68l203 8q128 3 179.5 56.5t51.5 180.5v58q0 239 -264 239h-82q-143 0 -219 -86.5t-76 -240.5v-1049h-311z" />
<glyph unicode="&#xe0;" horiz-adv-x="1230" d="M127 256v55q0 68 14.5 117t37 78.5t62.5 48.5t79 27t98 14q87 10 450 41v59q0 153 -57.5 207.5t-196.5 54.5q-175 0 -295 -43l-12 -139h-114v234q87 29 210.5 46t214.5 17h68q179 0 258.5 -91.5t79.5 -272.5v-588q125 -8 154 -10v-111h-310v158q-118 -93 -206.5 -133.5 t-210.5 -40.5h-37q-83 0 -134 10.5t-87.5 40.5t-51 83t-14.5 138zM287 276q0 -103 39 -139.5t149 -36.5h35q95 0 175.5 39.5t182.5 124.5v287q-284 -25 -391 -39q-111 -14 -150.5 -51.5t-39.5 -136.5v-48zM444 1440l119 57l199 -258l-66 -43l-250 219z" />
<glyph unicode="&#xe1;" horiz-adv-x="1230" d="M127 256v55q0 68 14.5 117t37 78.5t62.5 48.5t79 27t98 14q87 10 450 41v59q0 153 -57.5 207.5t-196.5 54.5q-175 0 -295 -43l-12 -139h-114v234q87 29 210.5 46t214.5 17h68q179 0 258.5 -91.5t79.5 -272.5v-588q125 -8 154 -10v-111h-310v158q-118 -93 -206.5 -133.5 t-210.5 -40.5h-37q-83 0 -134 10.5t-87.5 40.5t-51 83t-14.5 138zM287 276q0 -103 39 -139.5t149 -36.5h35q95 0 175.5 39.5t182.5 124.5v287q-284 -25 -391 -39q-111 -14 -150.5 -51.5t-39.5 -136.5v-48zM469 1239l199 258l118 -57l-2 -25l-249 -219z" />
<glyph unicode="&#xe2;" horiz-adv-x="1230" d="M127 256v55q0 68 14.5 117t37 78.5t62.5 48.5t79 27t98 14q87 10 450 41v59q0 153 -57.5 207.5t-196.5 54.5q-175 0 -295 -43l-12 -139h-114v234q87 29 210.5 46t214.5 17h68q179 0 258.5 -91.5t79.5 -272.5v-588q125 -8 154 -10v-111h-310v158q-118 -93 -206.5 -133.5 t-210.5 -40.5h-37q-83 0 -134 10.5t-87.5 40.5t-51 83t-14.5 138zM287 276q0 -103 39 -139.5t149 -36.5h35q95 0 175.5 39.5t182.5 124.5v287q-284 -25 -391 -39q-111 -14 -150.5 -51.5t-39.5 -136.5v-48zM340 1247l229 234h95l229 -234l-49 -41l-228 180l-227 -180z" />
<glyph unicode="&#xe3;" horiz-adv-x="1230" d="M127 256v55q0 68 14.5 117t37 78.5t62.5 48.5t79 27t98 14q87 10 450 41v59q0 153 -57.5 207.5t-196.5 54.5q-175 0 -295 -43l-12 -139h-114v234q87 29 210.5 46t214.5 17h68q179 0 258.5 -91.5t79.5 -272.5v-588q125 -8 154 -10v-111h-310v158q-118 -93 -206.5 -133.5 t-210.5 -40.5h-37q-83 0 -134 10.5t-87.5 40.5t-51 83t-14.5 138zM281 1294l135 146q46 49 94 49q25 0 59 -25.5t78.5 -67.5t73.5 -61l184 148l47 -41l-139 -148q-45 -45 -92 -45q-23 0 -55.5 25t-77.5 66t-78 63l-184 -150zM287 276q0 -103 39 -139.5t149 -36.5h35 q95 0 175.5 39.5t182.5 124.5v287q-284 -25 -391 -39q-111 -14 -150.5 -51.5t-39.5 -136.5v-48z" />
<glyph unicode="&#xe4;" horiz-adv-x="1230" d="M127 256v55q0 68 14.5 117t37 78.5t62.5 48.5t79 27t98 14q87 10 450 41v59q0 153 -57.5 207.5t-196.5 54.5q-175 0 -295 -43l-12 -139h-114v234q87 29 210.5 46t214.5 17h68q179 0 258.5 -91.5t79.5 -272.5v-588q125 -8 154 -10v-111h-310v158q-118 -93 -206.5 -133.5 t-210.5 -40.5h-37q-83 0 -134 10.5t-87.5 40.5t-51 83t-14.5 138zM287 276q0 -103 39 -139.5t149 -36.5h35q95 0 175.5 39.5t182.5 124.5v287q-284 -25 -391 -39q-111 -14 -150.5 -51.5t-39.5 -136.5v-48zM348 1339q0 34 25 56t61 22t60 -21.5t24 -56.5q0 -33 -24 -54 t-60 -21t-61 21t-25 54zM715 1339q0 35 24 56.5t60 21.5t60 -21.5t24 -56.5q0 -33 -24 -54t-60 -21t-60 21t-24 54z" />
<glyph unicode="&#xe5;" horiz-adv-x="1230" d="M127 256v55q0 68 14.5 117t37 78.5t62.5 48.5t79 27t98 14q87 10 450 41v59q0 153 -57.5 207.5t-196.5 54.5q-175 0 -295 -43l-12 -139h-114v234q87 29 210.5 46t214.5 17h68q179 0 258.5 -91.5t79.5 -272.5v-588q125 -8 154 -10v-111h-310v158q-118 -93 -206.5 -133.5 t-210.5 -40.5h-37q-83 0 -134 10.5t-87.5 40.5t-51 83t-14.5 138zM287 276q0 -103 39 -139.5t149 -36.5h35q95 0 175.5 39.5t182.5 124.5v287q-284 -25 -391 -39q-111 -14 -150.5 -51.5t-39.5 -136.5v-48zM459 1335v35q0 64 37 100.5t100 36.5h41q63 0 100 -37t37 -100v-35 q0 -64 -37 -100.5t-100 -36.5h-41q-63 0 -100 36.5t-37 100.5zM522 1337q0 -36 21.5 -56.5t56.5 -20.5h31q34 0 55.5 20.5t22.5 56.5v33q0 36 -21 57t-57 21h-31q-34 0 -56 -21t-22 -57v-33z" />
<glyph unicode="&#xe6;" horiz-adv-x="1904" d="M127 248v63q0 68 14.5 117.5t37.5 79.5t62.5 48.5t79 26.5t97.5 13q231 20 450 20v80q0 153 -57.5 207.5t-196.5 54.5q-175 0 -295 -43l-12 -139h-114v234q87 29 210.5 46t214.5 17h54q231 0 284 -162q46 77 137 119.5t214 42.5h67q214 0 315 -91.5t101 -283.5v-241h-770 v-107q0 -130 70 -194t202 -64h90q188 0 250 125l8 27h119v-103q-58 -80 -155.5 -120.5t-214.5 -40.5h-109q-309 0 -385 204q-129 -105 -224 -152.5t-220 -47.5h-37q-84 0 -134 9.5t-87 37.5t-51.5 80t-14.5 137zM283 276q0 -105 38.5 -140.5t153.5 -35.5h35q98 0 177.5 35.5 t189.5 118.5q-9 50 -9 108v166q-246 -5 -409 -30q-55 -7 -85 -16t-53 -28.5t-30.5 -50.5t-7.5 -84v-43zM1020 563h625v146q0 127 -69.5 193.5t-201.5 66.5h-63q-136 0 -213.5 -72.5t-77.5 -204.5v-129z" />
<glyph unicode="&#xe7;" horiz-adv-x="1097" d="M117 375v309q0 190 106 289.5t301 99.5h74q194 0 385 -78v-262h-117l-16 170q-71 31 -133 41t-172 10q-136 0 -204.5 -68.5t-68.5 -213.5v-301q0 -139 68.5 -203t202.5 -64h75q188 0 250 125l9 23h120v-111q-59 -76 -158.5 -118.5t-213.5 -42.5h-107l-8 -58h84 q75 0 109 -29t34 -94v-18q0 -68 -38 -99.5t-117 -33.5q-90 0 -201 18v49h201q35 0 55 19t20 51v8q0 37 -17.5 53.5t-61.5 16.5h-150l31 119q-176 13 -259 110t-83 283z" />
<glyph unicode="&#xe8;" horiz-adv-x="1155" d="M117 399v263q0 202 112.5 306.5t325.5 104.5h68q209 0 312 -97t103 -294v-227h-770v-99q0 -130 71 -195t204 -65h88q189 0 250 121l8 27h119v-103q-57 -80 -158.5 -120.5t-218.5 -40.5h-82q-225 0 -328.5 101.5t-103.5 317.5zM268 565h629v140q0 126 -73 192t-206 66h-63 q-136 0 -211.5 -71t-75.5 -202v-125zM342 1440l119 57l198 -258l-65 -43l-250 219z" />
<glyph unicode="&#xe9;" horiz-adv-x="1155" d="M117 399v263q0 202 112.5 306.5t325.5 104.5h68q209 0 312 -97t103 -294v-227h-770v-99q0 -130 71 -195t204 -65h88q189 0 250 121l8 27h119v-103q-57 -80 -158.5 -120.5t-218.5 -40.5h-82q-225 0 -328.5 101.5t-103.5 317.5zM268 565h629v140q0 126 -73 192t-206 66h-63 q-136 0 -211.5 -71t-75.5 -202v-125zM442 1239l199 258l119 -57l-2 -25l-250 -219z" />
<glyph unicode="&#xea;" horiz-adv-x="1155" d="M117 399v263q0 202 112.5 306.5t325.5 104.5h68q209 0 312 -97t103 -294v-227h-770v-99q0 -130 71 -195t204 -65h88q189 0 250 121l8 27h119v-103q-57 -80 -158.5 -120.5t-218.5 -40.5h-82q-225 0 -328.5 101.5t-103.5 317.5zM268 565h629v140q0 126 -73 192t-206 66h-63 q-136 0 -211.5 -71t-75.5 -202v-125zM313 1247l230 234h94l229 -234l-49 -41l-227 180l-228 -180z" />
<glyph unicode="&#xeb;" horiz-adv-x="1155" d="M117 399v263q0 202 112.5 306.5t325.5 104.5h68q209 0 312 -97t103 -294v-227h-770v-99q0 -130 71 -195t204 -65h88q189 0 250 121l8 27h119v-103q-57 -80 -158.5 -120.5t-218.5 -40.5h-82q-225 0 -328.5 101.5t-103.5 317.5zM268 565h629v140q0 126 -73 192t-206 66h-63 q-136 0 -211.5 -71t-75.5 -202v-125zM322 1339q0 34 25 56t61 22t60 -21.5t24 -56.5q0 -33 -24 -54t-60 -21t-61 21t-25 54zM688 1339q0 35 24 56.5t60 21.5t60 -21.5t24 -56.5q0 -33 -24 -54t-60 -21t-60 21t-24 54z" />
<glyph unicode="&#xec;" horiz-adv-x="608" d="M84 1440l119 57l198 -258l-65 -43l-250 219zM88 0v111q124 9 156 10v807q-53 2 -144 10v111h299v-928q32 -1 156 -10v-111h-467z" />
<glyph unicode="&#xed;" horiz-adv-x="608" d="M88 0v111q124 9 156 10v807q-53 2 -144 10v111h299v-928q32 -1 156 -10v-111h-467zM168 1239l199 258l118 -57l-2 -25l-250 -219z" />
<glyph unicode="&#xee;" horiz-adv-x="608" d="M39 1247l229 234h94l230 -234l-49 -41l-228 180l-227 -180zM88 0v111q124 9 156 10v807q-53 2 -144 10v111h299v-928q32 -1 156 -10v-111h-467z" />
<glyph unicode="&#xef;" horiz-adv-x="608" d="M47 1339q0 34 25 56t61 22t60 -21.5t24 -56.5q0 -33 -24 -54t-60 -21t-61 21t-25 54zM88 0v111q124 9 156 10v807q-53 2 -144 10v111h299v-928q32 -1 156 -10v-111h-467zM414 1339q0 35 24 56.5t60 21.5t60 -21.5t24 -56.5q0 -33 -24 -54t-60 -21t-60 21t-24 54z" />
<glyph unicode="&#xf0;" horiz-adv-x="1226" d="M117 406v245q0 199 86.5 284t277.5 85h39q82 0 155 -18.5t118 -40t135 -70.5v53q-2 94 -20 158.5t-70 116.5q-190 -67 -369 -119l-27 82l330 116q-76 53 -227 107l33 63q192 -43 311 -133l194 68l27 -82q-21 -10 -72.5 -32t-79.5 -34q125 -128 125 -360v-457 q0 -249 -98.5 -350.5t-329.5 -101.5h-71q-245 0 -356 102t-111 318zM272 393q0 -149 76 -215.5t232 -66.5h71q143 0 209.5 66t67.5 224v387q-82 42 -120.5 59.5t-100 32.5t-129.5 15h-37q-149 0 -209 -61.5t-60 -215.5v-225z" />
<glyph unicode="&#xf1;" horiz-adv-x="1370" d="M88 0v111q124 9 156 10v807q-53 2 -144 10v111h299v-187q131 101 242 156t231 55h23q137 0 194.5 -60.5t57.5 -217.5v-672q41 -5 170 -12v-111h-326v717q0 139 -31 182t-135 43h-24q-93 0 -190 -46t-212 -132v-643q32 -1 156 -10v-111h-467zM360 1294l136 146 q46 49 94 49q25 0 59 -25.5t78.5 -67.5t73.5 -61l184 148l47 -41l-139 -148q-45 -45 -92 -45q-23 0 -55.5 25t-77.5 66t-78 63l-184 -150z" />
<glyph unicode="&#xf2;" horiz-adv-x="1202" d="M117 397v254q0 215 105.5 318.5t328.5 103.5h106q219 0 323.5 -104t104.5 -318v-254q0 -211 -105 -314t-323 -103h-106q-222 0 -328 102.5t-106 314.5zM272 360q0 -129 70 -195.5t205 -66.5h106q135 0 206 66.5t71 195.5v330q0 130 -71 197t-206 67h-106q-135 0 -205 -67 t-70 -197v-330zM354 1440l119 57l199 -258l-66 -43l-250 219z" />
<glyph unicode="&#xf3;" horiz-adv-x="1202" d="M117 397v254q0 215 105.5 318.5t328.5 103.5h106q219 0 323.5 -104t104.5 -318v-254q0 -211 -105 -314t-323 -103h-106q-222 0 -328 102.5t-106 314.5zM272 360q0 -129 70 -195.5t205 -66.5h106q135 0 206 66.5t71 195.5v330q0 130 -71 197t-206 67h-106q-135 0 -205 -67 t-70 -197v-330zM469 1239l199 258l118 -57l-2 -25l-249 -219z" />
<glyph unicode="&#xf4;" horiz-adv-x="1202" d="M117 397v254q0 215 105.5 318.5t328.5 103.5h106q219 0 323.5 -104t104.5 -318v-254q0 -211 -105 -314t-323 -103h-106q-222 0 -328 102.5t-106 314.5zM272 360q0 -129 70 -195.5t205 -66.5h106q135 0 206 66.5t71 195.5v330q0 130 -71 197t-206 67h-106q-135 0 -205 -67 t-70 -197v-330zM326 1247l229 234h94l230 -234l-50 -41l-227 180l-227 -180z" />
<glyph unicode="&#xf5;" horiz-adv-x="1202" d="M117 397v254q0 215 105.5 318.5t328.5 103.5h106q219 0 323.5 -104t104.5 -318v-254q0 -211 -105 -314t-323 -103h-106q-222 0 -328 102.5t-106 314.5zM266 1294l135 146q46 49 95 49q25 0 59 -25.5t78.5 -67.5t73.5 -61l184 148l47 -41l-139 -148q-45 -45 -92 -45 q-23 0 -55.5 25t-77.5 66t-78 63l-185 -150zM272 360q0 -129 70 -195.5t205 -66.5h106q135 0 206 66.5t71 195.5v330q0 130 -71 197t-206 67h-106q-135 0 -205 -67t-70 -197v-330z" />
<glyph unicode="&#xf6;" horiz-adv-x="1202" d="M117 397v254q0 215 105.5 318.5t328.5 103.5h106q219 0 323.5 -104t104.5 -318v-254q0 -211 -105 -314t-323 -103h-106q-222 0 -328 102.5t-106 314.5zM272 360q0 -129 70 -195.5t205 -66.5h106q135 0 206 66.5t71 195.5v330q0 130 -71 197t-206 67h-106q-135 0 -205 -67 t-70 -197v-330zM334 1339q0 34 25 56t61 22t60 -21.5t24 -56.5q0 -33 -24 -54t-60 -21t-61 21t-25 54zM700 1339q0 35 24 56.5t60 21.5t60 -21.5t24 -56.5q0 -33 -24 -54t-60 -21t-60 21t-24 54z" />
<glyph unicode="&#xf7;" horiz-adv-x="1214" d="M117 659v119h981v-119h-981zM516 305q0 92 98 92q99 0 99 -92q0 -44 -25.5 -67t-73.5 -23q-98 0 -98 90zM516 1149q0 92 98 92q99 0 99 -92q0 -44 -25.5 -67t-73.5 -23q-98 0 -98 90z" />
<glyph unicode="&#xf8;" horiz-adv-x="1212" d="M123 397v254q0 215 105.5 318.5t328.5 103.5h107q174 0 278 -67l84 112h74l-113 -149q105 -105 105 -318v-254q0 -211 -105 -314t-323 -103h-107q-167 0 -270 59l-80 -105h-76l107 142q-115 100 -115 321zM279 360q0 -105 47 -170l532 705q-71 59 -199 59h-106 q-135 0 -204.5 -67t-69.5 -197v-330zM369 147q67 -49 184 -49h106q135 0 206 66.5t71 195.5v330q0 98 -39 160z" />
<glyph unicode="&#xf9;" horiz-adv-x="1368" d="M84 938v111h326v-693q0 -138 30 -180.5t133 -42.5h25q92 0 188.5 45.5t212.5 130.5v619q-9 1 -27 2t-61 3.5t-82 4.5v111h326v-928q124 -7 160 -10v-111h-316v203q-66 -47 -112 -76.5t-108.5 -62t-125 -48.5t-125.5 -16h-24q-142 0 -196 58t-54 221v649q-10 1 -29.5 2 t-60 3.5t-80.5 4.5zM424 1440l119 57l198 -258l-65 -43l-250 219z" />
<glyph unicode="&#xfa;" horiz-adv-x="1368" d="M84 938v111h326v-693q0 -138 30 -180.5t133 -42.5h25q92 0 188.5 45.5t212.5 130.5v619q-9 1 -27 2t-61 3.5t-82 4.5v111h326v-928q124 -7 160 -10v-111h-316v203q-66 -47 -112 -76.5t-108.5 -62t-125 -48.5t-125.5 -16h-24q-142 0 -196 58t-54 221v649q-10 1 -29.5 2 t-60 3.5t-80.5 4.5zM537 1239l198 258l119 -57l-2 -25l-250 -219z" />
<glyph unicode="&#xfb;" horiz-adv-x="1368" d="M84 938v111h326v-693q0 -138 30 -180.5t133 -42.5h25q92 0 188.5 45.5t212.5 130.5v619q-9 1 -27 2t-61 3.5t-82 4.5v111h326v-928q124 -7 160 -10v-111h-316v203q-66 -47 -112 -76.5t-108.5 -62t-125 -48.5t-125.5 -16h-24q-142 0 -196 58t-54 221v649q-10 1 -29.5 2 t-60 3.5t-80.5 4.5zM410 1247l229 234h94l230 -234l-50 -41l-227 180l-227 -180z" />
<glyph unicode="&#xfc;" horiz-adv-x="1368" d="M84 938v111h326v-693q0 -138 30 -180.5t133 -42.5h25q92 0 188.5 45.5t212.5 130.5v619q-9 1 -27 2t-61 3.5t-82 4.5v111h326v-928q124 -7 160 -10v-111h-316v203q-66 -47 -112 -76.5t-108.5 -62t-125 -48.5t-125.5 -16h-24q-142 0 -196 58t-54 221v649q-10 1 -29.5 2 t-60 3.5t-80.5 4.5zM418 1339q0 34 25 56t61 22t60 -21.5t24 -56.5q0 -33 -24 -54t-60 -21t-61 21t-25 54zM784 1339q0 35 24 56.5t60 21.5t60 -21.5t24 -56.5q0 -33 -24 -54t-60 -21t-60 21t-24 54z" />
<glyph unicode="&#xfd;" horiz-adv-x="1335" d="M33 938v111h479v-111q-73 -5 -176 -8l317 -783h4l338 783q-90 4 -145 8v111h453v-111q-35 -3 -93.5 -7t-72.5 -5l-482 -1116q49 0 131 -7v-108h-487v108q105 9 201 9l73 168l-403 950q-86 4 -137 8zM535 1239l198 258l119 -57l-2 -25l-250 -219z" />
<glyph unicode="&#xfe;" horiz-adv-x="1261" d="M88 -240q20 1 52 4t57 4.5t47 2.5v1542q-53 2 -144 10v111h299v-541q119 92 216.5 136t220.5 44h38q136 0 204.5 -85.5t68.5 -270.5v-395q0 -168 -76 -253t-213 -85h-39q-129 0 -211 27.5t-209 105.5v-346q22 -1 47 -2.5t57 -4.5t52 -4v-110h-467v110zM399 225 q112 -72 185 -95.5t176 -23.5h41q101 0 145.5 66t44.5 209v291q0 145 -41 207.5t-143 62.5h-35q-98 0 -183 -34.5t-190 -112.5v-570z" />
<glyph unicode="&#xff;" horiz-adv-x="1335" d="M33 938v111h479v-111q-73 -5 -176 -8l317 -783h4l338 783q-90 4 -145 8v111h453v-111q-35 -3 -93.5 -7t-72.5 -5l-482 -1116q49 0 131 -7v-108h-487v108q105 9 201 9l73 168l-403 950q-86 4 -137 8zM399 1339q0 34 25 56t61 22t60 -21.5t24 -56.5q0 -33 -24 -54t-60 -21 t-61 21t-25 54zM766 1339q0 35 24 56.5t60 21.5t60 -21.5t24 -56.5q0 -33 -24 -54t-60 -21t-60 21t-24 54z" />
<glyph unicode="&#x152;" horiz-adv-x="2060" d="M141 451v528q0 455 504 455h1256v-359h-105l-20 228h-615v-504h453v-142h-453v-526h637l21 227h104v-358h-1278q-501 0 -504 451zM303 446q0 -313 350 -313h346v1167h-346q-350 0 -350 -315v-539z" />
<glyph unicode="&#x153;" horiz-adv-x="1968" d="M117 397v254q0 215 105.5 318.5t328.5 103.5h106q252 0 357 -141q108 141 358 141h68q209 0 312 -97t103 -294v-227h-770v-99q0 -130 71 -195t204 -65h88q190 0 250 121l8 27h119v-103q-57 -80 -158.5 -120.5t-218.5 -40.5h-82q-255 0 -358 135q-102 -135 -351 -135h-106 q-222 0 -328 102.5t-106 314.5zM272 360q0 -129 70 -195.5t205 -66.5h106q135 0 206 66.5t71 195.5v330q0 130 -71 197t-206 67h-106q-135 0 -205 -67t-70 -197v-330zM1085 565h629v140q0 126 -72.5 192t-205.5 66h-64q-136 0 -211.5 -71t-75.5 -202v-125z" />
<glyph unicode="&#x178;" horiz-adv-x="1447" d="M43 1317v117h492v-117l-156 -6l348 -666h4l348 664q-107 4 -161 8v117h487v-117q-117 -8 -164 -10l-438 -791v-389q49 -2 170 -10v-117h-508v117q128 8 174 10v383l-438 797q-44 2 -158 10zM451 1679q0 36 25.5 59t64.5 23q37 0 62.5 -23t25.5 -59t-25.5 -59t-62.5 -23 q-39 0 -64.5 23t-25.5 59zM829 1679q0 36 26 59t63 23q39 0 64.5 -23t25.5 -59t-25.5 -59t-64.5 -23q-37 0 -63 23t-26 59z" />
<glyph unicode="&#x2c6;" horiz-adv-x="1024" d="M236 1247l229 234h94l229 -234l-49 -41l-227 180l-227 -180z" />
<glyph unicode="&#x2dc;" horiz-adv-x="1024" d="M178 1294l135 146q46 49 95 49q25 0 59 -25.5t78 -67.5t73 -61l185 148l47 -41l-139 -148q-45 -45 -93 -45q-23 0 -55.5 25t-77 66t-77.5 63l-185 -150z" />
<glyph unicode="&#x2000;" horiz-adv-x="922" />
<glyph unicode="&#x2001;" horiz-adv-x="1845" />
<glyph unicode="&#x2002;" horiz-adv-x="922" />
<glyph unicode="&#x2003;" horiz-adv-x="1845" />
<glyph unicode="&#x2004;" horiz-adv-x="615" />
<glyph unicode="&#x2005;" horiz-adv-x="461" />
<glyph unicode="&#x2006;" horiz-adv-x="307" />
<glyph unicode="&#x2007;" horiz-adv-x="307" />
<glyph unicode="&#x2008;" horiz-adv-x="230" />
<glyph unicode="&#x2009;" horiz-adv-x="369" />
<glyph unicode="&#x200a;" horiz-adv-x="102" />
<glyph unicode="&#x2010;" horiz-adv-x="763" d="M100 553v131h564v-131h-564z" />
<glyph unicode="&#x2011;" horiz-adv-x="763" d="M100 553v131h564v-131h-564z" />
<glyph unicode="&#x2012;" horiz-adv-x="763" d="M100 553v131h564v-131h-564z" />
<glyph unicode="&#x2013;" horiz-adv-x="1017" d="M100 555v127h818v-127h-818z" />
<glyph unicode="&#x2014;" horiz-adv-x="1630" d="M100 555v127h1430v-127h-1430z" />
<glyph unicode="&#x2018;" horiz-adv-x="376" d="M66 1126q0 124 172 320l38 -31q-34 -57 -51.5 -100t-21 -60t-6.5 -45l61 -20l-16 -94q-9 -65 -80 -52q-53 10 -74.5 26.5t-21.5 55.5z" />
<glyph unicode="&#x2019;" horiz-adv-x="376" d="M76 1075q34 57 52 99.5t21.5 60.5t6.5 45l-62 20l17 95q9 63 79 51q53 -10 75 -26.5t22 -55.5q0 -124 -172 -320z" />
<glyph unicode="&#x201a;" horiz-adv-x="389" d="M76 -211q34 57 53 100t22.5 61t6.5 46l-62 20l17 97q9 64 80 51q54 -10 76 -26.5t22 -55.5q0 -125 -174 -324z" />
<glyph unicode="&#x201c;" horiz-adv-x="643" d="M63 1122q0 124 175 324l41 -31q-34 -57 -53 -100t-22.5 -61t-6.5 -46l61 -20l-16 -96q-9 -65 -80 -52q-55 10 -77 26.5t-22 55.5zM328 1122q0 125 174 324l41 -31q-34 -57 -53 -100t-22.5 -61t-6.5 -46l61 -20l-16 -96q-9 -65 -80 -52q-54 10 -76 26.5t-22 55.5z" />
<glyph unicode="&#x201d;" horiz-adv-x="643" d="M72 1069q34 57 53 100t22.5 61t6.5 46l-62 20l17 97q9 63 79 51q55 -10 77 -26.5t22 -55.5q0 -125 -174 -324zM336 1069q34 57 53 100t22.5 61t6.5 46l-62 20l17 97q9 64 80 51q54 -10 76 -26.5t22 -55.5q0 -125 -174 -324z" />
<glyph unicode="&#x201e;" horiz-adv-x="649" d="M76 -211q34 57 53 100t22.5 61t6.5 46l-62 20l17 97q9 64 80 51q54 -10 76 -26.5t22 -55.5q0 -125 -174 -324zM342 -211q34 57 53 100t22.5 61t6.5 46l-62 20l17 97q9 64 80 51q54 -10 76 -26.5t22 -55.5q0 -125 -174 -324z" />
<glyph unicode="&#x2022;" horiz-adv-x="659" d="M25 723q0 184 96 274t291 90q387 0 387 -364q0 -354 -387 -354q-195 0 -291 88t-96 266z" />
<glyph unicode="&#x2026;" horiz-adv-x="1028" d="M96 84q0 94 101 94q100 0 100 -94q0 -92 -100 -92q-101 0 -101 92zM412 84q0 94 100 94t100 -94q0 -92 -100 -92t-100 92zM733 84q0 94 101 94q100 0 100 -94q0 -92 -100 -92q-101 0 -101 92z" />
<glyph unicode="&#x202f;" horiz-adv-x="369" />
<glyph unicode="&#x2039;" horiz-adv-x="626" d="M84 537v12l352 399h92v-53l-286 -346v-12l286 -349v-51h-92z" />
<glyph unicode="&#x203a;" horiz-adv-x="626" d="M84 137v51l287 349v12l-287 346v53h92l352 -399v-12l-352 -400h-92z" />
<glyph unicode="&#x205f;" horiz-adv-x="461" />
<glyph unicode="&#x20ac;" horiz-adv-x="1265" d="M6 567v76h121v133h-121v76h121v100q0 245 125 372.5t358 127.5h41q291 0 471 -82v-315h-114l-13 209q-52 26 -119 39t-109.5 14.5t-120.5 1.5h-21q-159 0 -246.5 -95.5t-87.5 -271.5v-100h592l-19 -76h-573v-133h518l-16 -76h-502v-137q0 -163 81 -239t244 -76h72 q127 0 208.5 48t127.5 150h113v-104q-71 -113 -184 -171t-257 -58h-94q-235 0 -354 107.5t-119 332.5v147h-123z" />
<glyph unicode="&#x2122;" horiz-adv-x="1427" d="M51 1268v166h522v-166h-57l-8 98h-154v-418q37 0 103 -4v-65h-287v65q70 4 102 4v418h-157l-9 -98h-55zM610 1370v64h191l188 -435h6l185 435h196v-64q-14 0 -41 -2t-41 -2v-418q28 0 82 -4v-65h-233v65l69 4v400l-188 -469h-66l-190 469v-400l72 -4v-65h-228v65 q58 4 84 4v418q-24 0 -86 4z" />
<glyph unicode="&#x25fc;" horiz-adv-x="1044" d="M0 0v1044h1044v-1044h-1044z" />
<glyph unicode="&#xfb01;" horiz-adv-x="1222" d="M84 934v102q27 1 80.5 4t79.5 4v127q0 112 46 179.5t150 91.5q41 8 226 37l14 -107q-100 -20 -178 -43q-62 -18 -82.5 -59t-20.5 -121v-100h617v-924q98 -8 153 -14v-111h-464v111q49 5 155 14v809h-461v-811q86 -3 187 -12v-111h-498v111q25 2 77 5t79 5v813h-160z M836 1339q0 40 27.5 65.5t68.5 25.5q42 0 70 -25t28 -66q0 -39 -28 -63.5t-70 -24.5q-41 0 -68.5 24.5t-27.5 63.5z" />
<glyph unicode="&#xfb02;" horiz-adv-x="1363" d="M84 934v102q27 1 80.5 4t79.5 4v127q0 112 46 179.5t150 91.5q41 8 226 37l14 -107q-100 -20 -178 -43q-62 -18 -82.5 -59t-20.5 -121v-100h320v-115h-320v-811q86 -3 187 -12v-111h-498v111q25 2 77 5t79 5v813h-160zM821 0v111q124 9 156 10v1192q-51 2 -143 10v111 h299v-1313q30 -1 155 -10v-111h-467z" />
<glyph unicode="&#xfb03;" horiz-adv-x="1894" d="M84 934v102q27 1 80.5 4t79.5 4v127q0 112 46 179.5t150 91.5q41 8 226 37l14 -107q-100 -20 -178 -43q-62 -18 -82.5 -59t-20.5 -121v-100h516v122q0 111 46.5 179t150.5 92q45 9 225 37l15 -107q-100 -20 -178 -43q-62 -18 -82.5 -59t-20.5 -121v-100h615v-924 q106 -9 155 -14v-111h-465v111q52 6 154 14v809h-459v-811q84 -3 186 -12v-111h-497v111q25 2 76.5 5t78.5 5v813h-516v-811q86 -3 187 -12v-111h-498v111q25 2 77 5t79 5v813h-160zM1507 1339q0 40 28 65.5t69 25.5q42 0 70 -25t28 -66q0 -39 -28 -63.5t-70 -24.5 q-41 0 -69 24.5t-28 63.5z" />
<glyph unicode="&#xfb04;" horiz-adv-x="1990" d="M84 934v102q27 1 80.5 4t79.5 4v127q0 112 46 179.5t150 91.5q41 8 226 37l14 -107q-100 -20 -178 -43q-62 -18 -82.5 -59t-20.5 -121v-100h516v122q0 111 46.5 179t150.5 92q45 9 225 37l15 -107q-100 -20 -178 -43q-62 -18 -82.5 -59t-20.5 -121v-100h320v-115h-320 v-811q84 -3 186 -12v-111h-497v111q25 2 76.5 5t78.5 5v813h-516v-811q86 -3 187 -12v-111h-498v111q25 2 77 5t79 5v813h-160zM1448 0v111q124 9 156 10v1192q-53 2 -144 10v111h299v-1313q32 -1 156 -10v-111h-467z" />
</font>
</defs>
</svg>
