<?xml version="1.0" standalone="no"?>
<!DOCTYPE svg PUBLIC "-//W3C//DTD SVG 1.1//EN" "http://www.w3.org/Graphics/SVG/1.1/DTD/svg11.dtd" >
<svg xmlns="http://www.w3.org/2000/svg">
<metadata></metadata>
<defs>
<font id="quadonlight" horiz-adv-x="1474" >
<font-face units-per-em="2048" ascent="1638" descent="-410" />
<missing-glyph horiz-adv-x="507" />
<glyph horiz-adv-x="2048" />
<glyph horiz-adv-x="2048" />
<glyph unicode="&#xd;" horiz-adv-x="2048" />
<glyph unicode=" "  horiz-adv-x="507" />
<glyph unicode="&#x09;" horiz-adv-x="507" />
<glyph unicode="&#xa0;" horiz-adv-x="507" />
<glyph unicode="!" horiz-adv-x="434" d="M145 57q0 68 72 68t72 -68q0 -65 -72 -65t-72 65zM162 1282v152h110v-152l-28 -903h-54z" />
<glyph unicode="&#x22;" horiz-adv-x="544" d="M109 926v508h104v-68q0 -183 -55 -440h-49zM332 926v508h104v-68q0 -183 -55 -440h-49z" />
<glyph unicode="#" horiz-adv-x="1331" d="M55 414v86h228l84 461h-250v86h264l70 387h90l-70 -387h508l70 387h92l-70 -387h205v-86h-219l-84 -461h258v-86h-273l-73 -414h-90l73 414h-510l-73 -414h-90l73 414h-213zM373 500h510l84 461h-510z" />
<glyph unicode="$" horiz-adv-x="1335" d="M164 1075v31q0 180 104.5 259.5t345.5 80.5v147h80v-147q227 -9 436 -103v-305h-77l-19 250q-151 71 -354 74v-551l225 -51q149 -35 207.5 -107t58.5 -221v-90q0 -194 -102 -273t-354 -79h-23v-140h-82v142q-232 8 -444 121v299h82l18 -248q163 -79 363 -88v649l-221 49 q-139 36 -191.5 102.5t-52.5 198.5zM270 1081q0 -96 38.5 -145.5t137.5 -73.5l183 -41v541h-6q-191 0 -272 -58t-81 -194v-29zM680 74h6h25q201 0 279.5 59.5t78.5 212.5v72q0 119 -48 173t-175 85l-166 37v-639z" />
<glyph unicode="%" horiz-adv-x="1742" d="M113 997v123q0 176 57 255t211 79h117q154 0 211 -79t57 -255v-123q0 -87 -12 -145.5t-42 -102t-82.5 -63.5t-131.5 -20h-117q-79 0 -131.5 20t-82.5 63.5t-42 102t-12 145.5zM193 1006q0 -143 38.5 -206t153.5 -63h109q114 0 153 63.5t39 205.5v106q0 144 -38.5 207 t-153.5 63h-109q-115 0 -153.5 -63t-38.5 -207v-106zM291 -6l555 733l524 715h62l-539 -715l-541 -733h-61zM977 315v121q0 176 57.5 255t212.5 79h117q153 0 210.5 -79.5t57.5 -254.5v-121q0 -176 -57.5 -254.5t-210.5 -78.5h-117q-155 0 -212.5 78.5t-57.5 254.5z M1057 324q0 -144 39 -207.5t153 -63.5h109q115 0 154.5 63.5t39.5 207.5v104q0 144 -39.5 207t-154.5 63h-109q-114 0 -153 -63t-39 -207v-104z" />
<glyph unicode="&#x26;" horiz-adv-x="1538" d="M92 399v60q0 64 17.5 116.5t46.5 89t73 66.5t89 49.5t102 36.5q-60 65 -87.5 128t-27.5 153v18q0 179 79.5 256.5t260.5 77.5h33q167 0 369 -78v-217h-80l-15 160q-125 53 -280 53h-23q-131 0 -187 -59t-56 -195v-16q0 -91 29.5 -144.5t117.5 -152.5l496 -492 q103 208 139 514h250v-71q-170 -9 -181 -9q-41 -303 -141 -501l162 -162q66 0 186 -6v-74h-239l-156 154q-63 -98 -151.5 -131t-268.5 -33h-102q-116 0 -197 19t-141 64.5t-88.5 126t-28.5 199.5zM188 418q0 -189 88.5 -265.5t266.5 -76.5h104q155 0 228.5 28.5t130.5 118.5 q-89 88 -266.5 265.5t-266.5 265.5q-53 -15 -89.5 -29.5t-76.5 -39t-64 -54t-39.5 -74t-15.5 -100.5v-39z" />
<glyph unicode="'" horiz-adv-x="323" d="M109 926v508h104v-68q0 -183 -55 -440h-49z" />
<glyph unicode="(" horiz-adv-x="552" d="M109 92v985q0 103 38.5 177.5t107.5 125.5t187 103l21 -47q-153 -78 -209.5 -152.5t-56.5 -206.5v-985q0 -132 56.5 -206t209.5 -152l-21 -47q-118 52 -187 103t-107.5 125t-38.5 177z" />
<glyph unicode=")" horiz-adv-x="557" d="M94 -266q153 78 209.5 152t56.5 206v985q0 132 -56.5 206.5t-209.5 152.5l21 47q118 -52 187.5 -103t108 -125.5t38.5 -177.5v-985q0 -102 -38.5 -176.5t-108 -125.5t-187.5 -103z" />
<glyph unicode="*" horiz-adv-x="753" d="M90 993l66 37l190 92l-190 90l-66 37l33 58l65 -39l174 -119l-18 211v74h66v-74l-17 -209l174 117l64 39l33 -58l-64 -37l-190 -90l190 -92l64 -37l-33 -55l-64 39l-174 119l17 -211v-76h-66v76l18 211l-174 -119l-65 -39z" />
<glyph unicode="+" horiz-adv-x="1218" d="M129 678v84h436v452h88v-452h437v-84h-437v-455h-88v455h-436z" />
<glyph unicode="," horiz-adv-x="354" d="M80 -205q38 58 57 102t21 57.5t4 39.5l-51 16l8 66q3 51 61 41q38 -8 54 -20t16 -40q0 -109 -141 -282z" />
<glyph unicode="-" horiz-adv-x="759" d="M113 569v86h534v-86h-534z" />
<glyph unicode="." horiz-adv-x="362" d="M109 57q0 68 71 68q72 0 72 -68q0 -65 -72 -65q-71 0 -71 65z" />
<glyph unicode="/" horiz-adv-x="831" d="M-23 -143l803 1745h72l-803 -1745h-72z" />
<glyph unicode="0" horiz-adv-x="1333" d="M162 451v528q0 471 461 471h92q456 0 456 -471v-528q-3 -469 -456 -469h-92q-230 0 -345 116.5t-116 352.5zM266 455q0 -383 361 -383h80q179 0 270.5 96.5t91.5 286.5v522q0 387 -362 387h-80q-361 0 -361 -387v-522z" />
<glyph unicode="1" horiz-adv-x="743" d="M92 1270v76l295 90h64v-1354q128 -4 200 -8v-74h-536v74q160 8 231 8v1255z" />
<glyph unicode="2" horiz-adv-x="1239" d="M164 0v78q0 248 31.5 350t130.5 166q35 25 87.5 52t97 46.5t129.5 56t138 60.5q102 45 142.5 90.5t40.5 120.5v65q0 166 -64 222.5t-248 56.5q-214 0 -362 -86l-13 -170h-75v231q121 62 227 86.5t229 24.5q231 0 318.5 -79t87.5 -288v-65q0 -109 -54.5 -168t-199.5 -125 q-35 -16 -133.5 -57t-171.5 -75t-113 -61q-82 -55 -104.5 -139.5t-22.5 -312.5h727l12 262h72v-342h-909z" />
<glyph unicode="3" horiz-adv-x="1175" d="M111 66v245h69l15 -186q141 -31 221 -42t159 -11q106 0 169 11.5t102.5 45t53 85.5t13.5 140v92q0 49 -8.5 85.5t-20 61.5t-40.5 41t-51 25t-71.5 13.5t-83 5t-103.5 0.5h-187v80h187q72 0 109 1t86 6t71 15.5t49 29.5t37.5 48.5t18 71t7.5 98.5v49q0 167 -71 228 t-267 61q-162 0 -354 -66l-14 -208h-70v264q107 40 225.5 66t212.5 26q168 0 262 -35.5t134.5 -113.5t40.5 -216v-55q0 -148 -38.5 -220t-115.5 -93q77 -20 115.5 -84t38.5 -189v-94q0 -139 -40 -215t-133 -109.5t-264 -33.5q-156 0 -464 76z" />
<glyph unicode="4" horiz-adv-x="1216" d="M37 385v78l770 971h102v-971h211v-66l-211 -12v-305q59 -2 213 -10v-70h-530v70q160 8 215 10v305h-770zM147 463h660v842z" />
<glyph unicode="5" horiz-adv-x="1161" d="M92 66v245h72l12 -188q248 -51 383 -51q122 0 196.5 14.5t119.5 53t61 96.5t16 153v141q0 110 -54 169t-155 59h-155q-109 0 -183 -20.5t-172 -84.5l-83 25l34 756h830v-265h-72l-8 183h-666l-28 -619q94 60 174.5 81.5t191.5 21.5h154q291 0 291 -297v-154 q0 -117 -21 -189.5t-77 -120.5t-147.5 -66.5t-238.5 -18.5q-167 0 -475 76z" />
<glyph unicode="6" horiz-adv-x="1239" d="M162 418v543q0 241 118.5 365t348.5 124q143 0 237 -15.5t219 -54.5v-229h-81l-17 164q-92 26 -165.5 36.5t-192.5 10.5q-179 0 -271 -102.5t-92 -301.5v-243q120 68 212.5 100t221.5 35h68q210 0 294.5 -82.5t84.5 -286.5v-98q0 -202 -109 -298.5t-327 -96.5h-86 q-231 0 -346.5 103t-116.5 327zM266 416q0 -180 89.5 -260t271.5 -80h84q168 0 253 77.5t85 239.5v80q0 166 -66.5 232.5t-230.5 66.5h-64q-124 0 -213.5 -29.5t-208.5 -97.5v-229z" />
<glyph unicode="7" horiz-adv-x="1140" d="M90 1108v326h979v-82l-643 -1352h-117v33l664 1317h-797l-14 -242h-72z" />
<glyph unicode="8" horiz-adv-x="1357" d="M145 362v39q0 146 78.5 228t243.5 104q-134 25 -198 101.5t-64 212.5v63q2 169 108 252.5t322 83.5h92q216 0 321 -83.5t105 -252.5v-63q0 -136 -62.5 -212.5t-195.5 -101.5q319 -39 319 -332v-39q0 -189 -110 -284.5t-338 -95.5h-168q-231 0 -342 95t-111 285zM248 367 q0 -301 354 -301h156q354 0 354 301v49q0 280 -354 280h-156q-354 0 -354 -280v-49zM301 1042q0 -138 81.5 -203t254.5 -65h86q172 0 254 65t82 203v62q0 136 -82 200t-254 64h-86q-173 0 -254.5 -64t-81.5 -200v-62z" />
<glyph unicode="9" horiz-adv-x="1239" d="M92 954v101q0 395 430 395h99q243 0 348.5 -101.5t107.5 -332.5v-551q0 -259 -117.5 -367t-388.5 -108q-106 0 -190.5 17t-216.5 59v247h86l10 -184q89 -29 155 -41t156 -12q216 0 310 86.5t94 296.5v258q-124 -68 -215.5 -98.5t-220.5 -30.5h-68q-210 0 -294.5 81.5 t-84.5 284.5zM190 965q0 -166 66.5 -232.5t230.5 -66.5h64q125 0 216 28.5t208 93.5v238q0 180 -85 259t-278 79h-84q-338 0 -338 -320v-79z" />
<glyph unicode=":" horiz-adv-x="362" d="M109 57q0 68 71 68q72 0 72 -68q0 -65 -72 -65q-71 0 -71 65zM109 975q0 67 71 67q72 0 72 -67q0 -66 -72 -66q-71 0 -71 66z" />
<glyph unicode=";" horiz-adv-x="362" d="M80 -205q38 58 57 102t21 57.5t4 39.5l-51 16l8 66q3 51 61 41q38 -8 54 -20t16 -40q0 -109 -141 -282zM109 975q0 67 71 67q72 0 72 -67q0 -66 -72 -66q-71 0 -71 66z" />
<glyph unicode="&#x3c;" horiz-adv-x="1187" d="M109 690v51l888 461h47v-67l-813 -414v-8l813 -412v-65h-55z" />
<glyph unicode="=" horiz-adv-x="1132" d="M129 434v88h875v-88h-875zM129 915v86h875v-86h-875z" />
<glyph unicode="&#x3e;" horiz-adv-x="1187" d="M143 236v65l813 412v8l-813 414v67h47l889 -461v-51l-880 -454h-56z" />
<glyph unicode="?" horiz-adv-x="1001" d="M47 1110v229q128 65 224.5 88t226.5 23q122 0 198 -16t125 -58t68.5 -109t19.5 -175v-64q0 -109 -35 -169.5t-124 -98.5q-57 -23 -160.5 -65.5t-145.5 -59.5v-260h-71l-19 313q280 113 316 129q79 33 109 81t30 128v61q0 115 -26.5 173.5t-93 83t-197.5 24.5 q-112 0 -187 -18.5t-170 -67.5l-12 -172h-76zM334 57q0 68 72 68q71 0 71 -68q0 -65 -71 -65q-72 0 -72 65z" />
<glyph unicode="@" horiz-adv-x="2189" d="M166 473q0 219 73.5 402t207 312t327.5 201t428 72q373 0 596 -202.5t223 -542.5q0 -285 -127.5 -456t-343.5 -171q-29 0 -46.5 1t-44.5 4t-43.5 11.5t-34 22t-27 36t-11.5 52.5q-59 -57 -100.5 -88t-111 -53.5t-160.5 -22.5h-39q-164 0 -243.5 99t-61.5 294l22 252 q12 157 105.5 244.5t232.5 87.5h55q108 0 191 -24t170 -76l8 98h94l-73 -731q-5 -53 4 -85t34 -45.5t46 -16.5t59 -3q173 0 279 154.5t106 411.5q0 315 -205.5 503.5t-552.5 188.5q-220 0 -403 -68t-308 -190t-193.5 -294.5t-68.5 -377.5q0 -230 104 -403t295 -266t443 -93 q158 0 330.5 42t304.5 110l20 -49q-128 -72 -307 -116t-350 -44q-270 0 -474.5 100t-316.5 286t-112 433zM721 457q-11 -170 46.5 -250t197.5 -80h34q62 0 109.5 10t90 34t70 46.5t74.5 65.5l3 20l49 555q-78 51 -155 73.5t-179 22.5h-57q-112 0 -183.5 -72t-83.5 -212z" />
<glyph unicode="A" horiz-adv-x="1615" d="M55 0v74q69 4 197 8l446 1270l-184 8v74h367l477 -1352q130 -4 203 -8v-74h-476v74q85 6 162 6l-129 362h-637l-127 -360q91 -3 160 -8v-74h-459zM504 528h590l-291 820h-8z" />
<glyph unicode="B" horiz-adv-x="1390" d="M92 1360v74h690q216 0 317 -84.5t101 -264.5v-34q0 -250 -211 -306q240 -55 240 -313v-53q0 -193 -103 -286t-313 -93h-719v74l193 8v1270zM389 86h414q160 0 241.5 77.5t81.5 229.5v43q0 139 -81 202.5t-242 63.5h-414v-616zM389 782h414q156 0 226.5 64t70.5 203v26 q0 141 -75 207t-241 66h-395v-566z" />
<glyph unicode="C" horiz-adv-x="1345" d="M164 418v543q0 241 117 365t344 124h80q297 0 477 -84v-315h-82l-19 252q-64 30 -145.5 44t-134.5 15.5t-172 1.5q-178 0 -270.5 -103t-92.5 -303v-538q0 -181 91 -265.5t272 -84.5h119q140 0 230.5 53.5t139.5 165.5h82v-74q-61 -113 -177.5 -173t-266.5 -60h-135 q-230 0 -343 105.5t-114 330.5z" />
<glyph unicode="D" horiz-adv-x="1503" d="M92 1360v74h793q456 0 456 -439v-559q0 -436 -456 -436h-791v74l193 8v1270zM389 86h488q179 0 271.5 89t92.5 261v561q0 172 -92 261.5t-272 89.5h-488v-1262z" />
<glyph unicode="E" horiz-adv-x="1323" d="M92 1360v74h1049v-330h-68l-16 246h-676v-574h487v-90h-487v-602h702l17 246h67v-330h-1073v74q162 7 182 8v1270q-8 1 -67.5 3t-116.5 5z" />
<glyph unicode="F" horiz-adv-x="1277" d="M92 1360v74h1075v-330h-67l-17 246h-702v-615h504v-90h-504v-563q161 -6 197 -8v-74h-484v74q62 4 182 8v1270q-8 1 -67.5 3t-116.5 5z" />
<glyph unicode="G" horiz-adv-x="1435" d="M164 424v528q0 241 129 369.5t369 128.5h63q118 0 260 -20t246 -64v-317h-82l-16 249q-141 60 -465 60q-192 0 -297 -106t-105 -304v-530q0 -171 102.5 -257.5t295.5 -86.5h161q158 0 257 81.5t100 215.5v235q-153 2 -516 12v74h608v-327q0 -118 -63 -206.5t-164 -132.5 t-224 -44h-168q-491 0 -491 442z" />
<glyph unicode="H" horiz-adv-x="1619" d="M92 0v74q66 4 195 8v1270q-124 4 -195 8v74h461v-74q-7 0 -70 -3t-94 -3v-580h848v580q-23 0 -51.5 1t-63 2.5t-55.5 2.5v74h459v-74q-67 -4 -187 -8v-1270q126 -4 187 -8v-74h-459v74q8 0 73.5 3t96.5 3v606h-848v-606q23 0 50.5 -1t60.5 -2.5t53 -2.5v-74h-461z" />
<glyph unicode="I" horiz-adv-x="651" d="M92 1360v74h465v-74q-60 -4 -176 -8v-1270q116 -4 176 -8v-74h-463v74q62 4 182 8v1270q-118 4 -184 8z" />
<glyph unicode="J" horiz-adv-x="655" d="M90 -252q5 5 26 24.5t34 34.5q86 89 117.5 174t31.5 246v1125q-118 4 -184 8v74h465v-74q-61 -4 -179 -8v-1125q0 -125 -14 -197.5t-49 -129t-109 -127.5q-34 -31 -92 -74z" />
<glyph unicode="K" horiz-adv-x="1525" d="M92 1360v74h465v-74q-60 -4 -176 -8v-576h367l415 578q-30 0 -91.5 3t-70.5 3v74h457v-74q-99 -6 -184 -6l-440 -615l448 -657q128 -4 197 -8v-74h-465v74q102 4 153 4l-413 610h-373v-606q116 -4 176 -8v-74h-463v74q62 4 182 8v1270q-118 4 -184 8z" />
<glyph unicode="L" horiz-adv-x="1275" d="M92 1360v74h475v-74q-68 -4 -186 -8v-1268h700l15 268h71v-352h-1073v74q57 3 115 5t67 3v1270q-118 4 -184 8z" />
<glyph unicode="M" horiz-adv-x="1935" d="M92 1360v74h332l537 -1287h4l542 1287h334v-74l-192 -8v-1270q122 -4 192 -8v-74h-457v74q7 0 70 3t94 3v1225l-547 -1305h-81l-535 1305v-1223q108 -4 166 -8v-74h-457v74q64 4 193 8v1270q-67 0 -195 8z" />
<glyph unicode="N" horiz-adv-x="1603" d="M92 1360v74h301l836 -1284v1204q-31 0 -94 3t-76 3v74h452v-74q-68 -4 -186 -8v-1352h-121l-823 1278v-1198q23 0 50.5 -1t60.5 -2.5t53 -2.5v-74h-451v74q64 4 193 8v1270z" />
<glyph unicode="O" d="M162 459v512q0 219 133.5 349t361.5 130h162q228 0 361 -130t133 -349v-512q0 -217 -133.5 -347t-360.5 -130h-162q-227 0 -360 129.5t-135 347.5zM266 461q0 -178 107.5 -281.5t288.5 -103.5h149q182 0 289.5 103.5t107.5 281.5v508q0 179 -107.5 283t-289.5 104h-149 q-180 0 -288 -105t-108 -282v-508z" />
<glyph unicode="P" horiz-adv-x="1337" d="M92 1360v74h719q200 0 308 -101.5t108 -285.5v-121q0 -180 -108.5 -279.5t-307.5 -99.5h-422v-465q126 -4 189 -8v-74h-484v74q65 4 193 8v1270zM389 633h418q156 0 239.5 80.5t83.5 226.5v98q0 146 -84 228t-239 82h-418v-715z" />
<glyph unicode="Q" d="M162 459v512q0 219 133.5 349t361.5 130h162q228 0 361 -130t133 -349v-512q0 -217 -133.5 -347t-360.5 -130h-162q-227 0 -360 129.5t-135 347.5zM266 459q0 -178 107.5 -282.5t288.5 -104.5h149q182 0 289.5 104.5t107.5 282.5v512q0 179 -107.5 284t-289.5 105h-149 q-180 0 -288 -106t-108 -283v-512zM621 -156q308 65 436 68h9q55 0 92 -12q41 -13 64.5 -44.5t35 -70t18.5 -100.5l-80 -45q-7 36 -11 55t-11.5 44.5t-15 38t-19.5 27t-27 20.5t-36 10.5t-48 4.5h-10q-116 0 -397 -41v45z" />
<glyph unicode="R" horiz-adv-x="1402" d="M92 1360v74h705q200 0 310 -100.5t110 -284.5v-95q0 -138 -79.5 -230t-219.5 -122q107 -183 258 -520l186 -8v-74h-295v80q-136 324 -248 508h-430v-508l176 -6v-74h-471v74q65 4 193 8v1270zM389 676h406q154 0 239.5 78.5t85.5 210.5v75q0 144 -85 226t-240 82h-406 v-672z" />
<glyph unicode="S" horiz-adv-x="1335" d="M164 1077v31q0 183 106 262.5t351 79.5h34q255 0 475 -102v-308h-77l-19 250q-158 76 -379 76h-32q-190 0 -271.5 -58.5t-81.5 -195.5v-29q0 -97 39 -147t137 -74l459 -102q149 -35 207.5 -107t58.5 -223v-90q0 -195 -102 -274.5t-354 -79.5h-41q-150 0 -268.5 29 t-239.5 94v301h82l18 -248q180 -92 420 -92h25q201 0 279.5 59.5t78.5 214.5v72q0 120 -47.5 174.5t-175.5 85.5l-438 98q-139 36 -191.5 102.5t-52.5 200.5z" />
<glyph unicode="T" horiz-adv-x="1394" d="M90 1100v334h1215v-334h-74l-10 246h-469v-1264q125 -4 182 -8v-74h-473v74q61 4 188 8v1264h-475l-10 -246h-74z" />
<glyph unicode="U" horiz-adv-x="1585" d="M92 1360v74h465v-74q-62 -4 -186 -8v-930q0 -172 92.5 -262t269.5 -90h135q177 0 270 90t93 262v932q-88 0 -187 6v74h451v-74q-89 -6 -168 -6v-932q0 -440 -457 -440h-141q-461 0 -461 440v930q-116 4 -176 8z" />
<glyph unicode="V" horiz-adv-x="1531" d="M47 1360v74h469v-74q-105 -6 -197 -6l439 -1256h16l436 1256q-91 0 -196 6v74h471v-74q-54 -4 -166 -8l-473 -1352h-162l-475 1354q-77 0 -162 6z" />
<glyph unicode="W" horiz-adv-x="2095" d="M45 1360v74h461v-74q-102 -6 -195 -6l330 -1245h8l350 1325h103l352 -1323h6l338 1243q-97 0 -199 6v74h451v-74q-83 -6 -160 -6l-364 -1354h-144l-331 1264h-4l-330 -1264h-152l-364 1354q-29 0 -88 3t-68 3z" />
<glyph unicode="X" horiz-adv-x="1417" d="M39 1360v74h465v-74l-176 -6l391 -580h4l381 580q-83 0 -182 6v74h458v-74q-55 -4 -168 -8l-424 -627l429 -645l163 -6v-74h-460v74q126 4 176 4l-391 596h-5l-378 -594q86 0 180 -6v-74h-459v74q89 6 170 6l422 643l-432 631z" />
<glyph unicode="Y" horiz-adv-x="1443" d="M47 1360v74h455v-74l-174 -6l395 -742h4l393 742l-176 6v74h453v-74q-55 -4 -168 -8l-457 -830v-440q116 -4 176 -8v-74h-463v74q65 4 185 8v438l-455 834q-79 0 -168 6z" />
<glyph unicode="Z" horiz-adv-x="1284" d="M127 0v59q0 17 16 43l910 1250h-838l-14 -254h-74v336h1047v-76l-918 -1276h823l15 258h73v-340h-1040z" />
<glyph unicode="[" horiz-adv-x="679" d="M162 -272v1714h428v-72h-338v-1571h338v-71h-428z" />
<glyph unicode="\" horiz-adv-x="831" d="M-20 1602h71l803 -1745h-72z" />
<glyph unicode="]" horiz-adv-x="679" d="M90 -201h338v1571h-338v72h428v-1714h-428v71z" />
<glyph unicode="^" horiz-adv-x="774" d="M55 995v39l307 406h52l305 -406v-39h-51l-275 346h-8l-274 -346h-56z" />
<glyph unicode="_" horiz-adv-x="1140" d="M-4 -246h1149v-61h-1149v61z" />
<glyph unicode="`" horiz-adv-x="1024" d="M371 1419v17l75 39l191 -248l-41 -29z" />
<glyph unicode="a" horiz-adv-x="1216" d="M139 244v67q0 67 14 115t35.5 76.5t61 46.5t77 25.5t97.5 13.5q265 23 473 39v65q0 90 -15.5 147.5t-51 90t-86 45t-128.5 12.5q-192 0 -333 -53l-9 -150h-73v209q81 30 201.5 49t203.5 19h62q179 0 253 -87.5t74 -268.5v-625l164 -8v-72h-262v166 q-127 -99 -217.5 -140.5t-218.5 -41.5h-39q-165 0 -224 51.5t-59 208.5zM242 258q0 -119 43 -159t170 -40h37q109 0 197 41.5t208 137.5v331q-307 -25 -444 -43q-127 -14 -169 -54.5t-42 -158.5v-55z" />
<glyph unicode="b" horiz-adv-x="1226" d="M86 1364v70h252v-516q133 86 218.5 114.5t221.5 28.5h39q135 0 207 -83.5t72 -248.5v-401q0 -175 -82 -259.5t-228 -84.5h-38q-174 0 -508 24v1346q-26 2 -77 5t-77 5zM338 80q190 -21 387 -21h37q113 0 174 72t61 217v342q0 146 -49 219.5t-157 73.5h-43 q-119 0 -201 -27t-209 -110v-766z" />
<glyph unicode="c" horiz-adv-x="1089" d="M129 354v338q0 181 101 275t294 94h64q201 0 375 -86v-221h-74l-12 166q-82 39 -151 52t-191 13q-308 0 -308 -305v-322q0 -297 305 -297h86q206 0 279 138l6 18h76v-67q-49 -81 -145 -124.5t-209 -43.5h-105q-391 0 -391 372z" />
<glyph unicode="d" horiz-adv-x="1208" d="M129 328v397q0 165 74.5 250.5t210.5 85.5h39q140 0 213 -22t223 -109v430q-20 0 -187 8v66h285v-1354l164 -8v-72h-262v170q-88 -68 -142 -102t-131 -59t-165 -25h-39q-283 0 -283 344zM227 354q0 -147 54 -216.5t165 -69.5h37q110 0 197 38.5t209 131.5v620 q-142 82 -212 101.5t-194 19.5h-41q-215 0 -215 -279v-346z" />
<glyph unicode="e" horiz-adv-x="1142" d="M129 367v303q0 187 110 289t310 102h65q398 0 398 -371v-217h-787v-123q0 -146 78.5 -219.5t228.5 -73.5h93q207 0 278 136l6 20h74v-63q-49 -83 -145 -125.5t-211 -42.5h-90q-207 0 -307.5 95.5t-100.5 289.5zM225 545h697v151q0 143 -79.5 217t-228.5 74h-65 q-154 0 -239 -80t-85 -229v-133z" />
<glyph unicode="f" horiz-adv-x="739" d="M92 963v65l168 6v135q0 107 38.5 169.5t133.5 84.5q73 17 199 39l10 -67q-92 -19 -172 -43q-68 -21 -89.5 -66t-21.5 -137v-113h322v-73h-322v-883q124 -4 191 -10v-70h-453v70q56 4 164 8v885h-168z" />
<glyph unicode="g" horiz-adv-x="1282" d="M102 -57q0 124 152 239q-58 15 -80 44t-22 85v37q0 56 31 90t110 82q-76 67 -76 205v57q0 156 94.5 217.5t304.5 61.5h58q132 0 211 -25h307v-63q-60 -4 -125 -9t-76 -6q64 -61 64 -178v-61q0 -155 -91.5 -218t-281.5 -63h-78q-182 0 -264 56q-73 -48 -87 -64 q-22 -25 -22 -65v-31q0 -55 43.5 -73.5t169.5 -18.5h424q155 0 212 -49.5t57 -184.5v-57q0 -148 -111 -211.5t-328 -63.5h-239q-147 0 -224.5 23.5t-105 69.5t-27.5 133v41zM188 -37v-39q0 -70 20 -105.5t76.5 -52t168.5 -16.5h254q172 0 256 44.5t84 154.5v39 q0 106 -38.5 141t-154.5 35h-405q-77 0 -130 6q-131 -101 -131 -207zM313 729q0 -123 74 -169t234 -46h51q147 0 218 46t71 169v49q0 121 -70 168t-215 47h-55q-160 0 -234 -46.5t-74 -168.5v-49z" />
<glyph unicode="h" horiz-adv-x="1357" d="M96 0v70q60 4 164 8v1276q-25 2 -75.5 5t-75.5 5v70h249v-594q138 106 253 163.5t241 57.5h22q136 0 190 -57.5t54 -215.5v-708q9 -1 182 -10v-70h-280v743q0 144 -34.5 190t-143.5 46h-25q-107 0 -216 -53t-243 -154v-694q104 -4 164 -8v-70h-426z" />
<glyph unicode="i" horiz-adv-x="579" d="M96 0v70q60 4 164 8v880q-73 3 -151 9v69h249v-958q104 -4 164 -8v-70h-426zM236 1327q0 29 19.5 46.5t47.5 17.5q30 0 50 -17.5t20 -46.5q0 -26 -20 -42.5t-50 -16.5q-28 0 -47.5 16.5t-19.5 42.5z" />
<glyph unicode="j" horiz-adv-x="518" d="M31 -246l61 60q87 90 118.5 155.5t31.5 173.5v813q-25 2 -77 5.5t-77 5.5v69h252v-893q0 -125 -32 -193t-140 -171q-17 -16 -92 -76zM217 1327q0 29 19 46.5t49 17.5t48.5 -17.5t18.5 -46.5q0 -26 -19 -42.5t-48 -16.5t-48.5 16.5t-19.5 42.5z" />
<glyph unicode="k" horiz-adv-x="1261" d="M96 0v70q60 4 164 8v1276q-25 2 -75.5 5t-75.5 5v70h249v-830h310l272 357q-60 0 -149 6v69h409v-69q-104 -7 -153 -9l-306 -391l320 -491q12 0 29.5 -1t49.5 -3t62 -4v-68h-244v70l-294 454h-306v-446q104 -4 164 -8v-70h-426z" />
<glyph unicode="l" horiz-adv-x="606" d="M96 0v70q60 4 164 8v1276q-25 2 -75.5 5t-75.5 5v70h249v-1356q104 -4 164 -8v-70h-426z" />
<glyph unicode="m" horiz-adv-x="2074" d="M96 0v70q60 4 164 8v880q-73 3 -151 9v69h249v-192q85 71 150.5 114.5t149.5 73t171 29.5h23q126 0 178.5 -46t59.5 -177q134 111 243.5 167t237.5 56h20q136 0 190 -57.5t54 -215.5v-708q9 -1 182 -10v-70h-280v743q0 144 -34.5 190t-143.5 46h-25q-108 0 -208.5 -51 t-231.5 -156v-692q6 -1 182 -10v-70h-281v743q0 144 -33.5 190t-144.5 46h-24q-107 0 -207 -50.5t-228 -154.5v-696q104 -4 164 -8v-70h-426z" />
<glyph unicode="n" horiz-adv-x="1357" d="M96 0v70q60 4 164 8v880q-73 3 -151 9v69h249v-196q138 106 253 163.5t241 57.5h22q136 0 190 -57.5t54 -215.5v-708q9 -1 182 -10v-70h-280v743q0 144 -34.5 190t-143.5 46h-25q-107 0 -216 -53t-243 -154v-694q104 -4 164 -8v-70h-426z" />
<glyph unicode="o" horiz-adv-x="1183" d="M129 365v311q0 385 408 385h114q404 0 404 -385v-311q0 -383 -404 -383h-114q-408 0 -408 383zM227 352q0 -144 78.5 -218.5t229.5 -74.5h114q151 0 229 74t78 219v338q0 145 -78 219t-229 74h-114q-151 0 -229.5 -74.5t-78.5 -218.5v-338z" />
<glyph unicode="p" horiz-adv-x="1247" d="M96 -268q91 6 164 6v1220q-73 3 -151 9v69h249v-157q127 95 227.5 138.5t229.5 43.5h39q135 0 199.5 -82t64.5 -262v-400q0 -166 -72 -249.5t-208 -83.5h-39q-135 0 -221 28t-220 111v-385q86 0 177 -6v-70h-439v70zM358 199q127 -83 209.5 -110.5t200.5 -27.5h43 q109 0 159 72t50 219v338q0 151 -46.5 220t-156.5 69h-37q-111 0 -205.5 -40.5t-216.5 -131.5v-608z" />
<glyph unicode="q" horiz-adv-x="1191" d="M129 317v400q0 175 82 259.5t229 84.5h39q58 0 106 -1t99 -4t83 -5t98 -7t104 -8v-1298q75 0 166 -6v-70h-437v70q105 6 172 6v385q-95 -59 -146.5 -84.5t-117 -40t-157.5 -14.5h-39q-136 0 -208.5 83.5t-72.5 249.5zM227 354q0 -146 50.5 -219.5t158.5 -73.5h43 q115 0 189 26.5t202 111.5v762q-179 20 -368 20h-37q-113 0 -175.5 -72t-62.5 -215v-340z" />
<glyph unicode="r" horiz-adv-x="864" d="M96 0v70q60 4 164 8v880q-73 3 -151 9v69h249v-202q92 117 176.5 162.5t198.5 45.5h74v-90q-65 0 -96 -2q-105 0 -187.5 -42.5t-165.5 -149.5v-680q102 -4 168 -8v-70h-430z" />
<glyph unicode="s" horiz-adv-x="1089" d="M137 106v189h72l8 -139q57 -101 299 -101h74q141 0 204.5 51t63.5 173v32q0 26 -3 46t-13.5 37t-21 29t-35 23.5t-45 19.5t-61 17.5t-74.5 16.5t-93 18q-96 18 -154.5 33.5t-105.5 35.5t-70 47t-34 62.5t-11 87.5v33q0 244 375 244h33q78 0 192.5 -20.5t194.5 -61.5v-205 h-78l-12 156q-113 59 -312 59q-159 0 -230 -42.5t-71 -137.5v-16q0 -96 56.5 -127t270.5 -74q18 -4 28 -6q66 -13 108 -23t85 -23t68 -26.5t48.5 -32.5t34.5 -42.5t17.5 -54t6.5 -69.5v-41q0 -155 -89 -223.5t-269 -68.5h-80q-43 0 -85.5 3.5t-103.5 14.5t-111.5 38.5 t-76.5 67.5z" />
<glyph unicode="t" horiz-adv-x="761" d="M66 958v78h116q19 0 26 8.5t7 28.5v277q62 10 92 10v-324h318v-78h-318v-663q0 -135 30 -182t118 -47h18q117 0 193 8v-64q-105 -28 -230 -28h-20q-115 0 -161 60.5t-46 213.5v702h-143z" />
<glyph unicode="u" horiz-adv-x="1359" d="M92 967v69h281v-719q0 -142 34 -187.5t144 -45.5h24q107 0 217.5 53.5t241.5 153.5v665q-26 3 -182 11v69h281v-956l170 -8v-72h-269v219q-139 -106 -253.5 -162.5t-239.5 -56.5h-23q-140 0 -192 56t-52 218v682q-26 3 -182 11z" />
<glyph unicode="v" horiz-adv-x="1280" d="M37 967v69h426v-69q-99 -6 -172 -6l342 -865h2l352 862q-66 3 -162 9v69h418v-69q-142 -9 -170 -9l-391 -958h-104l-390 958q-58 2 -151 9z" />
<glyph unicode="w" horiz-adv-x="1779" d="M39 967v69h414v-69q-99 -6 -172 -6l249 -859h5l305 934h86l309 -934h4l252 856q-67 3 -164 9v69h414v-69q-92 -6 -160 -9l-289 -958h-116l-295 885l-295 -885h-111l-289 958q-60 3 -147 9z" />
<glyph unicode="x" horiz-adv-x="1173" d="M39 0v70q41 4 131 8l332 452l-309 428q-26 0 -154 9v69h428v-69q-91 -6 -162 -6l275 -394h2l276 394q-62 0 -141 6v69h418v-69q-111 -7 -179 -9l-311 -423l340 -457q40 0 150 -8v-70h-428v70q95 6 167 6l-309 422h-2l-295 -422q81 0 189 -6v-70h-418z" />
<glyph unicode="y" horiz-adv-x="1323" d="M37 967v69h434v-69q-122 -7 -182 -9l356 -862h2l373 862q-53 2 -154 9v69h420v-69q-148 -9 -172 -9l-500 -1169q27 0 76.5 -3t61.5 -3v-70h-439v70q111 6 199 6l80 191l-412 978q-49 2 -143 9z" />
<glyph unicode="z" horiz-adv-x="1122" d="M92 0v57q0 24 25 45l766 861h-678l-17 -228h-55v301h868v-73l-780 -887h705l28 227h58l-11 -303h-909z" />
<glyph unicode="{" horiz-adv-x="706" d="M74 561v78l184 6v432q0 150 79 239t255 167l20 -47q-151 -78 -207.5 -152.5t-56.5 -206.5v-985q0 -132 56.5 -206t207.5 -152l-20 -47q-118 52 -187 103t-108 125.5t-39 176.5v463z" />
<glyph unicode="|" horiz-adv-x="462" d="M203 -250v1845h57v-1845h-57z" />
<glyph unicode="}" horiz-adv-x="706" d="M94 -266q151 78 207.5 152t56.5 206v985q0 132 -56.5 206.5t-207.5 152.5l21 47q176 -78 255 -167t79 -239v-432l184 -6v-78l-184 -6v-463q0 -102 -39 -176.5t-108 -125.5t-187 -103z" />
<glyph unicode="&#xa1;" horiz-adv-x="434" d="M145 1225q0 65 72 65t72 -65q0 -68 -72 -68t-72 68zM162 0l28 903h54l28 -903v-152h-110v152z" />
<glyph unicode="&#xa2;" horiz-adv-x="1089" d="M129 354v338q0 178 97.5 272t283.5 97v143h80v-143q199 0 373 -86v-221h-74l-12 166q-76 36 -140.5 50t-167.5 15v-924h49q206 0 279 138l6 18h76v-67q-49 -81 -145 -124.5t-209 -43.5h-39v-132h-78v132q-379 6 -379 372zM227 358q0 -294 299 -297v924q-299 -3 -299 -305 v-322z" />
<glyph unicode="&#xa3;" horiz-adv-x="1230" d="M74 588v65h215l-56 314q-37 230 59.5 356.5t317.5 126.5h107q227 0 407 -84l-8 -307h-76l-14 244q-59 29 -136.5 43.5t-124 16t-127.5 1.5h-24q-164 0 -239.5 -104t-40.5 -297l59 -310h506l-12 -65h-484l9 -47q7 -51 7.5 -94.5t-13 -85.5t-30.5 -77.5t-45.5 -71.5 t-58 -66t-67.5 -62h864l16 268h72v-352h-1071v74q37 31 66 58.5t59 63t48 70t33.5 77.5t16 86t-5.5 97l-10 62h-219z" />
<glyph unicode="&#xa5;" horiz-adv-x="1443" d="M47 1360v74h455v-74l-174 -6l395 -742h4l393 742l-176 6v74h453v-74q-55 -4 -168 -8l-418 -758h338v-53h-367l-10 -19v-153h377v-54h-377v-233q116 -4 176 -8v-74h-463v74q65 4 185 8v233h-383v54h383v151l-11 21h-372v53h342l-414 760q-79 0 -168 6z" />
<glyph unicode="&#xa7;" horiz-adv-x="1409" d="M164 727v51q0 63 47.5 116t136.5 87q-53 26 -74.5 68t-21.5 114v13q0 72 18.5 121t64 84.5t124.5 52t198 16.5h31q260 0 447 -102v-236h-70l-12 184q-132 78 -371 78h-25q-96 0 -159 -12.5t-96 -39.5t-45.5 -61t-12.5 -85v-13q0 -78 36.5 -111.5t139.5 -52.5l459 -73 q155 -26 210.5 -71t55.5 -146v-52q0 -77 -32 -126t-115 -78q47 -25 63.5 -66t16.5 -115v-14q0 -142 -98.5 -207t-344.5 -65h-30q-259 0 -449 102v236h74l12 -185q138 -78 363 -78h30q131 0 209.5 24t109.5 66.5t31 108.5v12q0 81 -30 113.5t-129 50.5l-496 74 q-154 26 -210 71.5t-56 145.5zM250 735q0 -69 43 -102t164 -53l495 -74q38 -6 76 -17q44 16 71.5 34t40 40.5t16 42.5t3.5 51v43q2 69 -42 102.5t-165 53.5l-465 76q-31 4 -77 16q-77 -29 -117.5 -73.5t-42.5 -96.5v-43z" />
<glyph unicode="&#xa8;" horiz-adv-x="1024" d="M276 1327q0 26 17.5 41.5t44.5 15.5t44 -15.5t17 -41.5q0 -24 -17 -38.5t-44 -14.5t-44.5 14.5t-17.5 38.5zM625 1327q0 26 17 41.5t42 15.5q28 0 46 -15.5t18 -41.5q0 -24 -18 -38.5t-46 -14.5q-25 0 -42 14.5t-17 38.5z" />
<glyph unicode="&#xa9;" horiz-adv-x="1816" d="M162 717q0 352 197.5 549.5t549.5 197.5t550 -197.5t198 -549.5t-198 -550t-550 -198t-549.5 198t-197.5 550zM219 717q0 -326 183.5 -510t506.5 -184q322 0 506 184t184 510t-184 510t-506 184q-323 0 -506.5 -184t-183.5 -510zM545 608v180q0 177 80.5 258.5 t242.5 81.5h60q137 0 289 -63v-180h-62l-14 133q-18 7 -34.5 13t-29 10.5t-28.5 8t-24 5.5t-25.5 3.5t-22.5 2.5t-25 1.5t-23.5 0.5h-28h-28.5q-126 0 -186.5 -66t-60.5 -215v-168q0 -125 62 -189.5t185 -64.5h46q74 0 119 13.5t74.5 42t64.5 86.5h59v-53 q-54 -85 -125 -120.5t-186 -35.5h-56q-158 0 -239.5 80.5t-83.5 234.5z" />
<glyph unicode="&#xaa;" horiz-adv-x="1050" d="M127 778v58q0 120 49.5 166.5t183.5 60.5q147 13 383 29v57q0 75 -11.5 121.5t-40.5 73t-69 36t-106 9.5q-150 0 -272 -41l-8 -131h-60v178q67 25 166 41t166 16h49q147 0 206.5 -72t59.5 -221v-512l138 -6v-57h-218v131q-104 -79 -177 -112.5t-177 -33.5h-31 q-135 0 -183 40.5t-48 168.5zM209 793q0 -99 32.5 -129.5t139.5 -30.5h31q89 0 160 29.5t171 101.5v283q-189 -13 -366 -35q-98 -10 -133 -46.5t-35 -125.5v-47z" />
<glyph unicode="&#xab;" horiz-adv-x="972" d="M137 537v12l369 395h55v-37l-315 -358v-12l315 -359v-37h-55zM471 537v12l369 395h55v-37l-315 -358v-12l315 -359v-37h-55z" />
<glyph unicode="&#xad;" horiz-adv-x="759" d="M113 569v86h534v-86h-534z" />
<glyph unicode="&#xae;" horiz-adv-x="854" d="M55 1094q0 173 99 271.5t274 98.5q174 0 272.5 -98t98.5 -272q0 -177 -98 -276t-273 -99t-274 99t-99 276zM98 1094q0 -161 88 -247.5t242 -86.5q153 0 240.5 86.5t87.5 247.5q0 158 -87.5 244.5t-240.5 86.5q-154 0 -242 -86.5t-88 -244.5zM260 909v39h53v309 q-8 0 -53 5v34h197q58 0 89.5 -29t31.5 -83v-15q0 -86 -68 -104q34 -51 57 -119l58 -4v-33h-103v25q-22 74 -63 125h-101v-113h54v-37h-152zM358 1100h103q71 0 71 69v15q0 34 -19.5 53.5t-57.5 19.5h-97v-157z" />
<glyph unicode="&#xaf;" horiz-adv-x="1024" d="M274 1247v68h476v-68h-476z" />
<glyph unicode="&#xb0;" horiz-adv-x="790" d="M129 1149v76q0 115 54 171t182 56h63q126 0 180 -57t54 -170v-76q-2 -114 -55 -170.5t-179 -56.5h-63q-127 0 -181.5 56.5t-54.5 170.5zM205 1157q0 -87 35.5 -127.5t128.5 -40.5h53q91 0 126.5 40.5t37.5 127.5v60q0 88 -35.5 128.5t-128.5 40.5h-53q-93 0 -128.5 -40.5 t-35.5 -128.5v-60z" />
<glyph unicode="&#xb2;" horiz-adv-x="815" d="M113 608v62q0 154 37 224.5t141 111.5q87 34 174 61q89 33 124.5 65.5t35.5 84.5v32q0 81 -41 109t-156 28q-157 0 -229 -36l-9 -115h-59v158q124 55 293 55q153 0 213.5 -42t60.5 -153v-36q0 -73 -44.5 -122.5t-153.5 -86.5q-37 -10 -172 -58q-86 -34 -115 -88.5 t-29 -187.5h457l8 162h53v-228h-589z" />
<glyph unicode="&#xb3;" horiz-adv-x="749" d="M59 647v168h54l8 -123q138 -28 235 -28q120 0 163.5 33t43.5 124v27q0 84 -35.5 114.5t-115.5 30.5h-205v60h207q77 0 113 34t36 121v21q0 93 -43.5 126.5t-163.5 33.5q-114 0 -221 -35l-8 -117h-53v162q142 49 280 49q164 0 223.5 -44.5t59.5 -170.5v-21q0 -82 -24 -130 t-81 -62q58 -13 81.5 -55t23.5 -123v-25q0 -123 -60.5 -168t-222.5 -45q-124 0 -295 43z" />
<glyph unicode="&#xb4;" horiz-adv-x="1024" d="M379 1227l190 248l76 -39v-17l-225 -221z" />
<glyph unicode="&#xb6;" horiz-adv-x="1087" d="M74 1034v33q0 94 19 160.5t52 106.5t89.5 62.5t118 30t151.5 7.5h510v-74q-26 -2 -78.5 -5t-79.5 -5v-1534h-78v1544h-160v-1544h-83v854h-31q-87 0 -149.5 8.5t-117.5 32t-89 63.5t-53.5 105t-20.5 155z" />
<glyph unicode="&#xb7;" horiz-adv-x="362" d="M109 598q0 68 71 68q72 0 72 -68q0 -66 -72 -66q-71 0 -71 66z" />
<glyph unicode="&#xb8;" horiz-adv-x="1024" d="M344 -291h191q40 0 63 21.5t23 56.5v10q0 40 -21 59t-72 19h-139l37 125h41l-14 -82h84q75 0 107 -28t32 -91v-14q0 -122 -144 -125q-84 0 -188 14v35z" />
<glyph unicode="&#xb9;" horiz-adv-x="651" d="M102 1311v53l256 86h52v-780q75 0 174 -6v-56h-461v56q117 6 207 6v706z" />
<glyph unicode="&#xba;" horiz-adv-x="968" d="M109 877v264q0 311 329 311h94q330 0 330 -311v-264q-3 -310 -330 -310h-94q-329 0 -329 310zM188 872q0 -239 248 -239h96q250 0 250 239v275q0 242 -250 242h-96q-248 0 -248 -242v-275z" />
<glyph unicode="&#xbb;" horiz-adv-x="972" d="M150 141v37l315 359v12l-315 358v37h55l368 -395v-12l-368 -396h-55zM483 141v37l316 359v12l-316 358v37h56l368 -395v-12l-368 -396h-56z" />
<glyph unicode="&#xbc;" horiz-adv-x="1638" d="M102 1311v53l256 86h52v-780q90 0 192 -6v-56h-496v56q117 6 224 6v706zM246 -6l555 733l524 715h61l-538 -715l-541 -733h-61zM786 217v59l486 564h82v-564h172v-53l-172 -4v-160q69 0 168 -6v-53h-439v53q72 4 189 8v156h-486zM860 276h412v486z" />
<glyph unicode="&#xbd;" horiz-adv-x="1722" d="M102 1311v53l256 86h52v-780q90 0 192 -6v-56h-496v56q117 6 224 6v706zM229 -6l555 733l525 715h61l-539 -715l-540 -733h-62zM1020 0v61q0 156 35.5 225.5t138.5 110.5q72 29 178 62q88 31 124 64t36 85v33q0 81 -41 109t-156 28q-155 0 -229 -37l-8 -114h-60v157 q126 56 293 56q153 0 214 -42t61 -153v-45q0 -67 -45 -115.5t-154 -85.5q-47 -12 -172 -57q-85 -34 -113 -89t-28 -190h454l8 164h54v-227h-590z" />
<glyph unicode="&#xbe;" horiz-adv-x="1722" d="M59 647v168h54l8 -123q138 -28 235 -28q120 0 163.5 33t43.5 124v27q0 84 -36 115.5t-115 31.5h-205v58h207q77 0 113 34t36 121v21q0 93 -43.5 126.5t-163.5 33.5q-114 0 -221 -35l-8 -117h-53v162q142 49 280 49q164 0 223.5 -44.5t59.5 -170.5v-21q0 -82 -24 -130 t-81 -62q58 -13 81.5 -55t23.5 -123v-25q0 -123 -60.5 -168t-222.5 -45q-124 0 -295 43zM313 -6l555 733l525 715h61l-539 -715l-540 -733h-62zM870 217v59l486 564h82v-564h172v-53l-172 -4v-160q69 0 168 -6v-53h-439v53q72 4 189 8v156h-486zM944 276h412v486z" />
<glyph unicode="&#xbf;" horiz-adv-x="1001" d="M92 190v64q0 109 35.5 169.5t124.5 98.5q57 22 159 65t146 60v260h72l18 -313q-262 -106 -315 -129q-79 -33 -109 -81t-30 -128v-61q0 -115 26.5 -173.5t93 -83t197.5 -24.5q112 0 186.5 18.5t169.5 67.5l13 172h75v-229q-128 -65 -224 -88t-226 -23q-122 0 -198 16 t-125.5 58t-69 109t-19.5 175zM524 1225q0 65 72 65t72 -65q0 -68 -72 -68t-72 68z" />
<glyph unicode="&#xc0;" horiz-adv-x="1615" d="M55 0v74q69 4 197 8l446 1270l-184 8v74h367l477 -1352q130 -4 203 -8v-74h-476v74q85 6 162 6l-129 362h-637l-127 -360q91 -3 160 -8v-74h-459zM504 528h590l-291 820h-8zM606 1763v17l76 39l190 -248l-41 -29z" />
<glyph unicode="&#xc1;" horiz-adv-x="1615" d="M55 0v74q69 4 197 8l446 1270l-184 8v74h367l477 -1352q130 -4 203 -8v-74h-476v74q85 6 162 6l-129 362h-637l-127 -360q91 -3 160 -8v-74h-459zM504 528h590l-291 820h-8zM705 1569l192 250l78 -39l-2 -17l-225 -223z" />
<glyph unicode="&#xc2;" horiz-adv-x="1615" d="M55 0v74q69 4 197 8l446 1270l-184 8v74h367l477 -1352q130 -4 203 -8v-74h-476v74q85 6 162 6l-129 362h-637l-127 -360q91 -3 160 -8v-74h-459zM504 528h590l-291 820h-8zM543 1579l227 227h61l228 -227l-35 -29l-223 187l-223 -187z" />
<glyph unicode="&#xc3;" horiz-adv-x="1615" d="M55 0v74q69 4 197 8l446 1270l-184 8v74h367l477 -1352q130 -4 203 -8v-74h-476v74q85 6 162 6l-129 362h-637l-127 -360q91 -3 160 -8v-74h-459zM475 1593l133 140q48 51 86 51q23 0 54.5 -26t75.5 -69t79 -67l187 158l32 -27l-137 -143q-39 -45 -82 -45 q-22 0 -52.5 25.5t-75 67.5t-81.5 66l-186 -157zM504 528h590l-291 820h-8z" />
<glyph unicode="&#xc4;" horiz-adv-x="1615" d="M55 0v74q69 4 197 8l446 1270l-184 8v74h367l477 -1352q130 -4 203 -8v-74h-476v74q85 6 162 6l-129 362h-637l-127 -360q91 -3 160 -8v-74h-459zM504 528h590l-291 820h-8zM559 1671q0 27 19 44.5t47 17.5t45.5 -17t17.5 -45q0 -25 -17.5 -41t-45.5 -16t-47 16t-19 41z M913 1671q0 28 18 45t46 17t46.5 -17.5t18.5 -44.5q0 -25 -18.5 -41t-46.5 -16t-46 16t-18 41z" />
<glyph unicode="&#xc5;" horiz-adv-x="1615" d="M55 0v74q69 4 197 8l446 1270l-184 8v74h367l477 -1352q130 -4 203 -8v-74h-476v74q85 6 162 6l-129 362h-637l-127 -360q91 -3 160 -8v-74h-459zM504 528h590l-291 820h-8zM653 1667v31q0 60 36.5 94.5t96.5 34.5h29q60 0 96.5 -34.5t36.5 -94.5v-31q0 -60 -36.5 -94.5 t-96.5 -34.5h-29q-60 0 -96.5 34.5t-36.5 94.5zM705 1669q0 -39 23 -62.5t60 -23.5h25q37 0 60.5 23.5t23.5 62.5v29q0 38 -23.5 61t-60.5 23h-25q-37 0 -60 -23t-23 -61v-29z" />
<glyph unicode="&#xc6;" horiz-adv-x="2238" d="M55 0v74q71 4 195 8l735 1268q-178 9 -192 10v74h1263v-330h-67l-17 246h-676v-576h488v-86h-488v-604h703l16 246h68v-330h-1073v74q147 6 182 6v371h-619l-213 -371q29 0 88 -3t68 -3v-74h-461zM608 516h584v834h-107z" />
<glyph unicode="&#xc7;" horiz-adv-x="1345" d="M164 418v543q0 241 117 365t344 124h80q297 0 477 -84v-315h-82l-19 252q-64 30 -145.5 44t-134.5 15.5t-172 1.5q-178 0 -270.5 -103t-92.5 -303v-538q0 -181 91 -265.5t272 -84.5h119q140 0 230.5 53.5t139.5 165.5h82v-74q-61 -113 -177.5 -173t-266.5 -60h-123 l-10 -64h84q75 0 107 -28t32 -91v-14q0 -122 -144 -125q-84 0 -188 14v35h191q40 0 63 21.5t23 56.5v10q0 40 -21 59t-72 19h-139l31 107q-214 6 -319.5 112t-106.5 324z" />
<glyph unicode="&#xc8;" horiz-adv-x="1323" d="M92 1360v74h1049v-330h-68l-16 246h-676v-574h487v-90h-487v-602h702l17 246h67v-330h-1073v74q162 7 182 8v1270q-8 1 -67.5 3t-116.5 5zM459 1763v17l76 39l190 -248l-41 -29z" />
<glyph unicode="&#xc9;" horiz-adv-x="1323" d="M92 1360v74h1049v-330h-68l-16 246h-676v-574h487v-90h-487v-602h702l17 246h67v-330h-1073v74q162 7 182 8v1270q-8 1 -67.5 3t-116.5 5zM559 1569l193 250l77 -39l-2 -17l-225 -223z" />
<glyph unicode="&#xca;" horiz-adv-x="1323" d="M92 1360v74h1049v-330h-68l-16 246h-676v-574h487v-90h-487v-602h702l17 246h67v-330h-1073v74q162 7 182 8v1270q-8 1 -67.5 3t-116.5 5zM395 1579l228 227h61l227 -227l-34 -29l-224 187l-223 -187z" />
<glyph unicode="&#xcb;" horiz-adv-x="1323" d="M92 1360v74h1049v-330h-68l-16 246h-676v-574h487v-90h-487v-602h702l17 246h67v-330h-1073v74q162 7 182 8v1270q-8 1 -67.5 3t-116.5 5zM412 1671q0 27 18.5 44.5t46.5 17.5t46 -17t18 -45q0 -25 -18 -41t-46 -16t-46.5 16t-18.5 41zM766 1671q0 28 17.5 45t45.5 17 t47 -17.5t19 -44.5q0 -25 -19 -41t-47 -16t-45.5 16t-17.5 41z" />
<glyph unicode="&#xcc;" horiz-adv-x="651" d="M92 1360v74h465v-74q-60 -4 -176 -8v-1270q116 -4 176 -8v-74h-463v74q62 4 182 8v1270q-118 4 -184 8zM131 1763v17l76 39l190 -248l-41 -29z" />
<glyph unicode="&#xcd;" horiz-adv-x="651" d="M92 1360v74h465v-74q-60 -4 -176 -8v-1270q116 -4 176 -8v-74h-463v74q62 4 182 8v1270q-118 4 -184 8zM231 1569l193 250l78 -39l-2 -17l-226 -223z" />
<glyph unicode="&#xce;" horiz-adv-x="651" d="M68 1579l227 227h61l228 -227l-35 -29l-223 187l-224 -187zM92 1360v74h465v-74q-60 -4 -176 -8v-1270q116 -4 176 -8v-74h-463v74q62 4 182 8v1270q-118 4 -184 8z" />
<glyph unicode="&#xcf;" horiz-adv-x="651" d="M84 1671q0 27 19 44.5t47 17.5t45.5 -17t17.5 -45q0 -25 -17.5 -41t-45.5 -16t-47 16t-19 41zM92 1360v74h465v-74q-60 -4 -176 -8v-1270q116 -4 176 -8v-74h-463v74q62 4 182 8v1270q-118 4 -184 8zM438 1671q0 28 18 45t46 17t46.5 -17.5t18.5 -44.5q0 -25 -18.5 -41 t-46.5 -16t-46 16t-18 41z" />
<glyph unicode="&#xd0;" horiz-adv-x="1503" d="M92 666v69h195v617l-195 8v74h793q456 0 456 -439v-559q0 -436 -456 -436h-791v74l193 8v584h-195zM389 86h488q179 0 271.5 89t92.5 261v561q0 172 -92 261.5t-272 89.5h-488v-613h191v-69h-191v-580z" />
<glyph unicode="&#xd1;" horiz-adv-x="1603" d="M92 1360v74h301l836 -1284v1204q-31 0 -94 3t-76 3v74h452v-74q-68 -4 -186 -8v-1352h-121l-823 1278v-1198q23 0 50.5 -1t60.5 -2.5t53 -2.5v-74h-451v74q64 4 193 8v1270zM475 1593l133 140q48 51 86 51q23 0 54.5 -26t75.5 -69t79 -67l187 158l32 -27l-137 -143 q-39 -45 -82 -45q-22 0 -52.5 25.5t-75 67.5t-81.5 66l-186 -157z" />
<glyph unicode="&#xd2;" d="M162 459v512q0 219 133.5 349t361.5 130h162q228 0 361 -130t133 -349v-512q0 -217 -133.5 -347t-360.5 -130h-162q-227 0 -360 129.5t-135 347.5zM266 461q0 -178 107.5 -281.5t288.5 -103.5h149q182 0 289.5 103.5t107.5 281.5v508q0 179 -107.5 283t-289.5 104h-149 q-180 0 -288 -105t-108 -282v-508zM543 1763v17l75 39l191 -248l-41 -29z" />
<glyph unicode="&#xd3;" d="M162 459v512q0 219 133.5 349t361.5 130h162q228 0 361 -130t133 -349v-512q0 -217 -133.5 -347t-360.5 -130h-162q-227 0 -360 129.5t-135 347.5zM266 461q0 -178 107.5 -281.5t288.5 -103.5h149q182 0 289.5 103.5t107.5 281.5v508q0 179 -107.5 283t-289.5 104h-149 q-180 0 -288 -105t-108 -282v-508zM641 1569l193 250l77 -39l-2 -17l-225 -223z" />
<glyph unicode="&#xd4;" d="M162 459v512q0 219 133.5 349t361.5 130h162q228 0 361 -130t133 -349v-512q0 -217 -133.5 -347t-360.5 -130h-162q-227 0 -360 129.5t-135 347.5zM266 461q0 -178 107.5 -281.5t288.5 -103.5h149q182 0 289.5 103.5t107.5 281.5v508q0 179 -107.5 283t-289.5 104h-149 q-180 0 -288 -105t-108 -282v-508zM479 1579l228 227h61l227 -227l-34 -29l-224 187l-223 -187z" />
<glyph unicode="&#xd5;" d="M162 459v512q0 219 133.5 349t361.5 130h162q228 0 361 -130t133 -349v-512q0 -217 -133.5 -347t-360.5 -130h-162q-227 0 -360 129.5t-135 347.5zM266 461q0 -178 107.5 -281.5t288.5 -103.5h149q182 0 289.5 103.5t107.5 281.5v508q0 179 -107.5 283t-289.5 104h-149 q-180 0 -288 -105t-108 -282v-508zM412 1593l133 140q48 51 86 51q23 0 54.5 -26t75.5 -69t79 -67l186 158l33 -27l-137 -143q-39 -45 -82 -45q-22 0 -52.5 25.5t-75 67.5t-81.5 66l-187 -157z" />
<glyph unicode="&#xd6;" d="M162 459v512q0 219 133.5 349t361.5 130h162q228 0 361 -130t133 -349v-512q0 -217 -133.5 -347t-360.5 -130h-162q-227 0 -360 129.5t-135 347.5zM266 461q0 -178 107.5 -281.5t288.5 -103.5h149q182 0 289.5 103.5t107.5 281.5v508q0 179 -107.5 283t-289.5 104h-149 q-180 0 -288 -105t-108 -282v-508zM496 1671q0 27 18.5 44.5t46.5 17.5t46 -17t18 -45q0 -25 -18 -41t-46 -16t-46.5 16t-18.5 41zM850 1671q0 28 17.5 45t45.5 17t47 -17.5t19 -44.5q0 -25 -19 -41t-47 -16t-45.5 16t-17.5 41z" />
<glyph unicode="&#xd7;" horiz-adv-x="1206" d="M168 340l379 377l-379 375l61 61l377 -379l375 379l57 -55l-379 -377l379 -377l-61 -61l-377 381l-375 -381z" />
<glyph unicode="&#xd8;" d="M162 459v512q0 219 133.5 349t361.5 130h162q215 0 350 -119l117 166h60l-142 -203q109 -128 109 -323v-512q0 -217 -133.5 -347t-360.5 -130h-162q-187 0 -315 92l-100 -144h-60l123 174q-140 125 -143 355zM266 461q0 -169 99 -273l743 1057q-108 111 -297 111h-149 q-180 0 -288 -105t-108 -282v-508zM401 156q104 -80 261 -80h149q182 0 289.5 103.5t107.5 281.5v508q0 139 -67 237z" />
<glyph unicode="&#xd9;" horiz-adv-x="1585" d="M92 1360v74h465v-74q-62 -4 -186 -8v-930q0 -172 92.5 -262t269.5 -90h135q177 0 270 90t93 262v932q-88 0 -187 6v74h451v-74q-89 -6 -168 -6v-932q0 -440 -457 -440h-141q-461 0 -461 440v930q-116 4 -176 8zM602 1763v17l76 39l190 -248l-41 -29z" />
<glyph unicode="&#xda;" horiz-adv-x="1585" d="M92 1360v74h465v-74q-62 -4 -186 -8v-930q0 -172 92.5 -262t269.5 -90h135q177 0 270 90t93 262v932q-88 0 -187 6v74h451v-74q-89 -6 -168 -6v-932q0 -440 -457 -440h-141q-461 0 -461 440v930q-116 4 -176 8zM700 1569l193 250l78 -39l-2 -17l-226 -223z" />
<glyph unicode="&#xdb;" horiz-adv-x="1585" d="M92 1360v74h465v-74q-62 -4 -186 -8v-930q0 -172 92.5 -262t269.5 -90h135q177 0 270 90t93 262v932q-88 0 -187 6v74h451v-74q-89 -6 -168 -6v-932q0 -440 -457 -440h-141q-461 0 -461 440v930q-116 4 -176 8zM539 1579l227 227h61l228 -227l-35 -29l-223 187l-224 -187 z" />
<glyph unicode="&#xdc;" horiz-adv-x="1585" d="M92 1360v74h465v-74q-62 -4 -186 -8v-930q0 -172 92.5 -262t269.5 -90h135q177 0 270 90t93 262v932q-88 0 -187 6v74h451v-74q-89 -6 -168 -6v-932q0 -440 -457 -440h-141q-461 0 -461 440v930q-116 4 -176 8zM555 1671q0 27 19 44.5t47 17.5t45.5 -17t17.5 -45 q0 -25 -17.5 -41t-45.5 -16t-47 16t-19 41zM909 1671q0 28 18 45t46 17t46.5 -17.5t18.5 -44.5q0 -25 -18.5 -41t-46.5 -16t-46 16t-18 41z" />
<glyph unicode="&#xdd;" horiz-adv-x="1443" d="M47 1360v74h455v-74l-174 -6l395 -742h4l393 742l-176 6v74h453v-74q-55 -4 -168 -8l-457 -830v-440q116 -4 176 -8v-74h-463v74q65 4 185 8v438l-455 834q-79 0 -168 6zM629 1569l192 250l78 -39l-2 -17l-225 -223z" />
<glyph unicode="&#xde;" horiz-adv-x="1286" d="M92 1360v74h289v-308h383q200 0 306 -97t106 -281v-80q0 -181 -106.5 -277t-305.5 -96h-383v-295h-287v74q99 6 182 6v1272q-124 4 -184 8zM381 379h383q153 0 234 79t81 222v59q0 144 -80 222.5t-235 78.5h-383v-661z" />
<glyph unicode="&#xdf;" horiz-adv-x="1372" d="M96 0v70q27 3 164 8v878l-151 11v69h151v33q0 200 112 314t324 114h92q183 0 275 -86.5t92 -253.5v-78q0 -137 -43 -208.5t-131 -92.5q111 -14 170 -84t59 -213v-153q0 -338 -342 -338q-172 0 -350 24v62h332q130 0 197 65t67 193v149q0 140 -68.5 197t-199.5 57h-193 q-31 0 -45 7.5t-14 27.5v39l211 4q144 1 201 60t57 204v70q0 268 -291 268h-86q-156 0 -242 -97.5t-86 -266.5v-1053h-262z" />
<glyph unicode="&#xe0;" horiz-adv-x="1216" d="M139 244v67q0 67 14 115t35.5 76.5t61 46.5t77 25.5t97.5 13.5q265 23 473 39v65q0 90 -15.5 147.5t-51 90t-86 45t-128.5 12.5q-192 0 -333 -53l-9 -150h-73v209q81 30 201.5 49t203.5 19h62q179 0 253 -87.5t74 -268.5v-625l164 -8v-72h-262v166 q-127 -99 -217.5 -140.5t-218.5 -41.5h-39q-165 0 -224 51.5t-59 208.5zM242 258q0 -119 43 -159t170 -40h37q109 0 197 41.5t208 137.5v331q-307 -25 -444 -43q-127 -14 -169 -54.5t-42 -158.5v-55zM469 1419v17l76 39l190 -248l-41 -29z" />
<glyph unicode="&#xe1;" horiz-adv-x="1216" d="M139 244v67q0 67 14 115t35.5 76.5t61 46.5t77 25.5t97.5 13.5q265 23 473 39v65q0 90 -15.5 147.5t-51 90t-86 45t-128.5 12.5q-192 0 -333 -53l-9 -150h-73v209q81 30 201.5 49t203.5 19h62q179 0 253 -87.5t74 -268.5v-625l164 -8v-72h-262v166 q-127 -99 -217.5 -140.5t-218.5 -41.5h-39q-165 0 -224 51.5t-59 208.5zM242 258q0 -119 43 -159t170 -40h37q109 0 197 41.5t208 137.5v331q-307 -25 -444 -43q-127 -14 -169 -54.5t-42 -158.5v-55zM481 1227l191 248l76 -39v-17l-226 -221z" />
<glyph unicode="&#xe2;" horiz-adv-x="1216" d="M139 244v67q0 67 14 115t35.5 76.5t61 46.5t77 25.5t97.5 13.5q265 23 473 39v65q0 90 -15.5 147.5t-51 90t-86 45t-128.5 12.5q-192 0 -333 -53l-9 -150h-73v209q81 30 201.5 49t203.5 19h62q179 0 253 -87.5t74 -268.5v-625l164 -8v-72h-262v166 q-127 -99 -217.5 -140.5t-218.5 -41.5h-39q-165 0 -224 51.5t-59 208.5zM242 258q0 -119 43 -159t170 -40h37q109 0 197 41.5t208 137.5v331q-307 -25 -444 -43q-127 -14 -169 -54.5t-42 -158.5v-55zM352 1237l226 223h59l227 -223l-35 -29l-221 185l-223 -185z" />
<glyph unicode="&#xe3;" horiz-adv-x="1216" d="M139 244v67q0 67 14 115t35.5 76.5t61 46.5t77 25.5t97.5 13.5q265 23 473 39v65q0 90 -15.5 147.5t-51 90t-86 45t-128.5 12.5q-192 0 -333 -53l-9 -150h-73v209q81 30 201.5 49t203.5 19h62q179 0 253 -87.5t74 -268.5v-625l164 -8v-72h-262v166 q-127 -99 -217.5 -140.5t-218.5 -41.5h-39q-165 0 -224 51.5t-59 208.5zM242 258q0 -119 43 -159t170 -40h37q109 0 197 41.5t208 137.5v331q-307 -25 -444 -43q-127 -14 -169 -54.5t-42 -158.5v-55zM289 1286l133 139q45 48 84 48q22 0 55 -27t77 -69t75 -62l186 155 l29 -26l-133 -141q-43 -46 -84 -46q-21 0 -53.5 27t-76.5 69t-77 64l-185 -157z" />
<glyph unicode="&#xe4;" horiz-adv-x="1216" d="M139 244v67q0 67 14 115t35.5 76.5t61 46.5t77 25.5t97.5 13.5q265 23 473 39v65q0 90 -15.5 147.5t-51 90t-86 45t-128.5 12.5q-192 0 -333 -53l-9 -150h-73v209q81 30 201.5 49t203.5 19h62q179 0 253 -87.5t74 -268.5v-625l164 -8v-72h-262v166 q-127 -99 -217.5 -140.5t-218.5 -41.5h-39q-165 0 -224 51.5t-59 208.5zM242 258q0 -119 43 -159t170 -40h37q109 0 197 41.5t208 137.5v331q-307 -25 -444 -43q-127 -14 -169 -54.5t-42 -158.5v-55zM375 1327q0 26 17 41.5t44 15.5t44.5 -15.5t17.5 -41.5 q0 -24 -17.5 -38.5t-44.5 -14.5t-44 14.5t-17 38.5zM723 1327q0 26 17 41.5t42 15.5q28 0 46 -15.5t18 -41.5q0 -24 -18 -38.5t-46 -14.5q-25 0 -42 14.5t-17 38.5z" />
<glyph unicode="&#xe5;" horiz-adv-x="1216" d="M139 244v67q0 67 14 115t35.5 76.5t61 46.5t77 25.5t97.5 13.5q265 23 473 39v65q0 90 -15.5 147.5t-51 90t-86 45t-128.5 12.5q-192 0 -333 -53l-9 -150h-73v209q81 30 201.5 49t203.5 19h62q179 0 253 -87.5t74 -268.5v-625l164 -8v-72h-262v166 q-127 -99 -217.5 -140.5t-218.5 -41.5h-39q-165 0 -224 51.5t-59 208.5zM242 258q0 -119 43 -159t170 -40h37q109 0 197 41.5t208 137.5v331q-307 -25 -444 -43q-127 -14 -169 -54.5t-42 -158.5v-55zM465 1327v29q0 58 35 92.5t94 34.5h29q59 0 94 -34.5t35 -92.5v-29 q0 -60 -35 -94.5t-94 -34.5h-29q-59 0 -94 34.5t-35 94.5zM512 1327q0 -38 23.5 -61t60.5 -23h22q37 0 61.5 23t25.5 61v29q0 38 -24 61t-63 23h-22q-37 0 -60.5 -23t-23.5 -61v-29z" />
<glyph unicode="&#xe6;" horiz-adv-x="1908" d="M139 240v71q0 48 7 86.5t18.5 66t32 48t42 33t53.5 21.5t61 13.5t71 8.5q257 22 473 18v86q0 90 -15.5 147.5t-51 90t-86 45t-128.5 12.5q-192 0 -333 -53l-9 -150h-73v209q81 30 201.5 49t203.5 19h45q256 0 303 -187q45 90 138.5 138.5t224.5 48.5h65q201 0 299.5 -90 t98.5 -273v-225h-787v-127q0 -145 78 -218t227 -73h95q207 0 276 138l8 20h74v-63q-49 -83 -144 -125.5t-210 -42.5h-105q-299 0 -370 206q-71 -56 -114.5 -87t-101.5 -61.5t-116.5 -43t-128.5 -12.5h-39q-68 0 -112.5 6.5t-79.5 22t-54 45.5t-28 73.5t-9 108.5zM238 258 q0 -119 43.5 -159t173.5 -40h37q112 0 199 40t216 139q-10 58 -10 110v201q-252 -5 -455 -29q-64 -7 -99.5 -17.5t-61 -33.5t-34.5 -59.5t-9 -98.5v-53zM993 543h693v155q0 143 -77.5 218t-226.5 75h-65q-153 0 -238.5 -80.5t-85.5 -230.5v-137z" />
<glyph unicode="&#xe7;" horiz-adv-x="1089" d="M129 354v338q0 181 101 275t294 94h64q201 0 375 -86v-221h-74l-12 166q-82 39 -151 52t-191 13q-308 0 -308 -305v-322q0 -297 305 -297h86q206 0 279 138l6 18h76v-67q-49 -81 -145 -124.5t-209 -43.5h-105h-12l-10 -64h84q75 0 107 -28t32 -91v-14q0 -122 -143 -125 q-85 0 -189 14v35h191q40 0 63 21.5t23 56.5v10q0 40 -21 59t-72 19h-139l33 109q-338 24 -338 370z" />
<glyph unicode="&#xe8;" horiz-adv-x="1142" d="M129 367v303q0 187 110 289t310 102h65q398 0 398 -371v-217h-787v-123q0 -146 78.5 -219.5t228.5 -73.5h93q207 0 278 136l6 20h74v-63q-49 -83 -145 -125.5t-211 -42.5h-90q-207 0 -307.5 95.5t-100.5 289.5zM225 545h697v151q0 143 -79.5 217t-228.5 74h-65 q-154 0 -239 -80t-85 -229v-133zM354 1419v17l76 39l191 -248l-41 -29z" />
<glyph unicode="&#xe9;" horiz-adv-x="1142" d="M129 367v303q0 187 110 289t310 102h65q398 0 398 -371v-217h-787v-123q0 -146 78.5 -219.5t228.5 -73.5h93q207 0 278 136l6 20h74v-63q-49 -83 -145 -125.5t-211 -42.5h-90q-207 0 -307.5 95.5t-100.5 289.5zM225 545h697v151q0 143 -79.5 217t-228.5 74h-65 q-154 0 -239 -80t-85 -229v-133zM455 1227l190 248l76 -39v-17l-225 -221z" />
<glyph unicode="&#xea;" horiz-adv-x="1142" d="M129 367v303q0 187 110 289t310 102h65q398 0 398 -371v-217h-787v-123q0 -146 78.5 -219.5t228.5 -73.5h93q207 0 278 136l6 20h74v-63q-49 -83 -145 -125.5t-211 -42.5h-90q-207 0 -307.5 95.5t-100.5 289.5zM225 545h697v151q0 143 -79.5 217t-228.5 74h-65 q-154 0 -239 -80t-85 -229v-133zM326 1237l225 223h59l228 -223l-35 -29l-221 185l-224 -185z" />
<glyph unicode="&#xeb;" horiz-adv-x="1142" d="M129 367v303q0 187 110 289t310 102h65q398 0 398 -371v-217h-787v-123q0 -146 78.5 -219.5t228.5 -73.5h93q207 0 278 136l6 20h74v-63q-49 -83 -145 -125.5t-211 -42.5h-90q-207 0 -307.5 95.5t-100.5 289.5zM225 545h697v151q0 143 -79.5 217t-228.5 74h-65 q-154 0 -239 -80t-85 -229v-133zM346 1327q0 26 17.5 41.5t44.5 15.5t44 -15.5t17 -41.5q0 -24 -17 -38.5t-44 -14.5t-44.5 14.5t-17.5 38.5zM694 1327q0 26 17.5 41.5t42.5 15.5q28 0 45.5 -15.5t17.5 -41.5q0 -24 -17.5 -38.5t-45.5 -14.5q-26 0 -43 14.5t-17 38.5z" />
<glyph unicode="&#xec;" horiz-adv-x="579" d="M94 1419v17l76 39l190 -248l-41 -29zM96 0v70q60 4 164 8v880q-73 3 -151 9v69h249v-958q104 -4 164 -8v-70h-426z" />
<glyph unicode="&#xed;" horiz-adv-x="579" d="M96 0v70q60 4 164 8v880q-73 3 -151 9v69h249v-958q104 -4 164 -8v-70h-426zM176 1227l191 248l75 -39v-17l-225 -221z" />
<glyph unicode="&#xee;" horiz-adv-x="579" d="M49 1237l225 223h60l227 -223l-35 -29l-221 185l-223 -185zM96 0v70q60 4 164 8v880q-73 3 -151 9v69h249v-958q104 -4 164 -8v-70h-426z" />
<glyph unicode="&#xef;" horiz-adv-x="579" d="M70 1327q0 26 17 41.5t44 15.5t44.5 -15.5t17.5 -41.5q0 -24 -17.5 -38.5t-44.5 -14.5t-44 14.5t-17 38.5zM96 0v70q60 4 164 8v880q-73 3 -151 9v69h249v-958q104 -4 164 -8v-70h-426zM418 1327q0 26 17 41.5t42 15.5q28 0 46 -15.5t18 -41.5q0 -24 -18 -38.5t-46 -14.5 q-25 0 -42 14.5t-17 38.5z" />
<glyph unicode="&#xf0;" horiz-adv-x="1210" d="M129 397v254q0 203 85.5 287t287.5 84h39q61 0 110.5 -8t98 -26.5t83 -36t94.5 -50.5q5 -3 8 -4.5t8 -4.5t9 -5v59q0 100 -22.5 169.5t-85.5 127.5q-133 -54 -369 -131l-18 53l338 129q-87 59 -246 115l20 49q190 -51 305 -137l189 72l18 -54q-1 0 -157 -69 q71 -67 100 -151t29 -197v-502q0 -233 -95 -331.5t-309 -98.5h-74q-228 0 -337 99t-109 308zM229 391q0 -166 86 -243.5t258 -77.5h74q157 0 231 77t74 254v416q-68 37 -99.5 53.5t-81.5 36t-96.5 26.5t-105.5 7h-39q-167 0 -234 -67.5t-67 -237.5v-244z" />
<glyph unicode="&#xf1;" horiz-adv-x="1357" d="M96 0v70q60 4 164 8v880q-73 3 -151 9v69h249v-196q138 106 253 163.5t241 57.5h22q136 0 190 -57.5t54 -215.5v-708q9 -1 182 -10v-70h-280v743q0 144 -34.5 190t-143.5 46h-25q-107 0 -216 -53t-243 -154v-694q104 -4 164 -8v-70h-426zM373 1286l133 139q45 48 84 48 q22 0 55 -27t77 -69t75 -62l186 155l29 -26l-133 -141q-43 -46 -84 -46q-21 0 -53.5 27t-76.5 69t-77 64l-185 -157z" />
<glyph unicode="&#xf2;" horiz-adv-x="1183" d="M129 365v311q0 385 408 385h114q404 0 404 -385v-311q0 -383 -404 -383h-114q-408 0 -408 383zM227 352q0 -144 78.5 -218.5t229.5 -74.5h114q151 0 229 74t78 219v338q0 145 -78 219t-229 74h-114q-151 0 -229.5 -74.5t-78.5 -218.5v-338zM365 1419v17l75 39l191 -248 l-41 -29z" />
<glyph unicode="&#xf3;" horiz-adv-x="1183" d="M129 365v311q0 385 408 385h114q404 0 404 -385v-311q0 -383 -404 -383h-114q-408 0 -408 383zM227 352q0 -144 78.5 -218.5t229.5 -74.5h114q151 0 229 74t78 219v338q0 145 -78 219t-229 74h-114q-151 0 -229.5 -74.5t-78.5 -218.5v-338zM483 1227l191 248l76 -39v-17 l-226 -221z" />
<glyph unicode="&#xf4;" horiz-adv-x="1183" d="M129 365v311q0 385 408 385h114q404 0 404 -385v-311q0 -383 -404 -383h-114q-408 0 -408 383zM227 352q0 -144 78.5 -218.5t229.5 -74.5h114q151 0 229 74t78 219v338q0 145 -78 219t-229 74h-114q-151 0 -229.5 -74.5t-78.5 -218.5v-338zM336 1237l225 223h60l227 -223 l-35 -29l-221 185l-223 -185z" />
<glyph unicode="&#xf5;" horiz-adv-x="1183" d="M129 365v311q0 385 408 385h114q404 0 404 -385v-311q0 -383 -404 -383h-114q-408 0 -408 383zM227 352q0 -144 78.5 -218.5t229.5 -74.5h114q151 0 229 74t78 219v338q0 145 -78 219t-229 74h-114q-151 0 -229.5 -74.5t-78.5 -218.5v-338zM272 1286l134 139q45 48 83 48 q22 0 55 -27t77 -69t75 -62l187 155l28 -26l-133 -141q-43 -46 -84 -46q-21 0 -53.5 27t-76.5 69t-77 64l-184 -157z" />
<glyph unicode="&#xf6;" horiz-adv-x="1183" d="M129 365v311q0 385 408 385h114q404 0 404 -385v-311q0 -383 -404 -383h-114q-408 0 -408 383zM227 352q0 -144 78.5 -218.5t229.5 -74.5h114q151 0 229 74t78 219v338q0 145 -78 219t-229 74h-114q-151 0 -229.5 -74.5t-78.5 -218.5v-338zM356 1327q0 26 17.5 41.5 t44.5 15.5t44 -15.5t17 -41.5q0 -24 -17 -38.5t-44 -14.5t-44.5 14.5t-17.5 38.5zM705 1327q0 26 17 41.5t42 15.5q28 0 45.5 -15.5t17.5 -41.5q0 -24 -17.5 -38.5t-45.5 -14.5q-25 0 -42 14.5t-17 38.5z" />
<glyph unicode="&#xf7;" horiz-adv-x="1218" d="M129 680v78h961v-78h-961zM545 309q0 68 69 68q72 0 72 -68q0 -63 -72 -63q-33 0 -51 16.5t-18 46.5zM545 1145q0 67 69 67q72 0 72 -67q0 -64 -72 -64q-32 0 -50.5 16.5t-18.5 47.5z" />
<glyph unicode="&#xf8;" horiz-adv-x="1189" d="M131 365v311q0 385 408 385h114q169 0 269 -68l84 117h57l-107 -145q101 -98 101 -289v-311q0 -383 -404 -383h-114q-158 0 -254 57l-78 -109h-60l99 136q-115 95 -115 299zM229 352q0 -136 72 -211l567 779q-78 63 -217 63h-114q-151 0 -229.5 -74.5t-78.5 -218.5v-338z M338 111q73 -52 199 -52h114q151 0 229 74t78 219v338q0 122 -57 197z" />
<glyph unicode="&#xf9;" horiz-adv-x="1359" d="M92 967v69h281v-719q0 -142 34 -187.5t144 -45.5h24q107 0 217.5 53.5t241.5 153.5v665q-26 3 -182 11v69h281v-956l170 -8v-72h-269v219q-139 -106 -253.5 -162.5t-239.5 -56.5h-23q-140 0 -192 56t-52 218v682q-26 3 -182 11zM442 1419v17l76 39l191 -248l-41 -29z" />
<glyph unicode="&#xfa;" horiz-adv-x="1359" d="M92 967v69h281v-719q0 -142 34 -187.5t144 -45.5h24q107 0 217.5 53.5t241.5 153.5v665q-26 3 -182 11v69h281v-956l170 -8v-72h-269v219q-139 -106 -253.5 -162.5t-239.5 -56.5h-23q-140 0 -192 56t-52 218v682q-26 3 -182 11zM561 1227l191 248l75 -39v-17l-225 -221z " />
<glyph unicode="&#xfb;" horiz-adv-x="1359" d="M92 967v69h281v-719q0 -142 34 -187.5t144 -45.5h24q107 0 217.5 53.5t241.5 153.5v665q-26 3 -182 11v69h281v-956l170 -8v-72h-269v219q-139 -106 -253.5 -162.5t-239.5 -56.5h-23q-140 0 -192 56t-52 218v682q-26 3 -182 11zM432 1237l225 223h60l227 -223l-35 -29 l-221 185l-223 -185z" />
<glyph unicode="&#xfc;" horiz-adv-x="1359" d="M92 967v69h281v-719q0 -142 34 -187.5t144 -45.5h24q107 0 217.5 53.5t241.5 153.5v665q-26 3 -182 11v69h281v-956l170 -8v-72h-269v219q-139 -106 -253.5 -162.5t-239.5 -56.5h-23q-140 0 -192 56t-52 218v682q-26 3 -182 11zM453 1327q0 26 17 41.5t44 15.5t44 -15.5 t17 -41.5q0 -24 -17 -38.5t-44 -14.5t-44 14.5t-17 38.5zM801 1327q0 26 17 41.5t42 15.5q28 0 46 -15.5t18 -41.5q0 -24 -18 -38.5t-46 -14.5q-25 0 -42 14.5t-17 38.5z" />
<glyph unicode="&#xfd;" horiz-adv-x="1323" d="M37 967v69h434v-69q-122 -7 -182 -9l356 -862h2l373 862q-53 2 -154 9v69h420v-69q-148 -9 -172 -9l-500 -1169q27 0 76.5 -3t61.5 -3v-70h-439v70q111 6 199 6l80 191l-412 978q-49 2 -143 9zM553 1227l190 248l76 -39v-17l-225 -221z" />
<glyph unicode="&#xfe;" horiz-adv-x="1247" d="M96 -268q91 6 164 6v1616q-25 2 -75.5 5t-75.5 5v70h249v-560q126 97 227 142t230 45h39q135 0 199.5 -82t64.5 -262v-400q0 -166 -72 -249.5t-208 -83.5h-39q-136 0 -222.5 29t-218.5 114v-389q72 0 164 -6v-70h-426v70zM358 199q127 -83 209.5 -110.5t200.5 -27.5h43 q109 0 159 72t50 219v338q0 151 -46.5 220t-156.5 69h-37q-111 0 -205.5 -40.5t-216.5 -131.5v-608z" />
<glyph unicode="&#xff;" horiz-adv-x="1323" d="M37 967v69h434v-69q-122 -7 -182 -9l356 -862h2l373 862q-53 2 -154 9v69h420v-69q-148 -9 -172 -9l-500 -1169q27 0 76.5 -3t61.5 -3v-70h-439v70q111 6 199 6l80 191l-412 978q-49 2 -143 9zM426 1327q0 26 17 41.5t44 15.5t44.5 -15.5t17.5 -41.5q0 -24 -17.5 -38.5 t-44.5 -14.5t-44 14.5t-17 38.5zM774 1327q0 26 17.5 41.5t42.5 15.5q28 0 45.5 -15.5t17.5 -41.5q0 -24 -17.5 -38.5t-45.5 -14.5q-26 0 -43 14.5t-17 38.5z" />
<glyph unicode="&#x152;" horiz-adv-x="2084" d="M162 434v565q0 213 119.5 324t353.5 111h1268v-330h-70l-14 246h-676v-574h487v-90h-487v-602h702l15 246h69v-330h-1294q-234 0 -352.5 110.5t-120.5 323.5zM266 432q0 -172 94 -259.5t279 -86.5h399v1262h-399q-373 0 -373 -347v-569z" />
<glyph unicode="&#x153;" horiz-adv-x="1970" d="M129 365v311q0 385 408 385h114q273 0 361 -172q102 172 366 172h66q397 0 397 -371v-217h-786v-123q0 -146 78.5 -219.5t228.5 -73.5h92q208 0 279 136l6 20h73v-63q-49 -83 -145 -125.5t-211 -42.5h-90q-270 0 -360 163q-88 -163 -355 -163h-114q-408 0 -408 383z M227 352q0 -144 78.5 -218.5t229.5 -74.5h114q151 0 229 74t78 219v338q0 145 -78 219t-229 74h-114q-151 0 -229.5 -74.5t-78.5 -218.5v-338zM1055 545h696v151q0 144 -79 217.5t-228 73.5h-66q-154 0 -238.5 -79.5t-84.5 -229.5v-133z" />
<glyph unicode="&#x178;" horiz-adv-x="1443" d="M47 1360v74h455v-74l-174 -6l395 -742h4l393 742l-176 6v74h453v-74q-55 -4 -168 -8l-457 -830v-440q116 -4 176 -8v-74h-463v74q65 4 185 8v438l-455 834q-79 0 -168 6zM483 1671q0 27 19 44.5t47 17.5t45.5 -17t17.5 -45q0 -25 -17.5 -41t-45.5 -16t-47 16t-19 41z M838 1671q0 28 17.5 45t45.5 17t47 -17.5t19 -44.5q0 -25 -19 -41t-47 -16t-45.5 16t-17.5 41z" />
<glyph unicode="&#x2c6;" horiz-adv-x="1024" d="M256 1237l225 223h60l227 -223l-35 -29l-221 185l-223 -185z" />
<glyph unicode="&#x2dc;" horiz-adv-x="1024" d="M193 1286l133 139q45 48 84 48q22 0 55 -27t76.5 -69t74.5 -62l187 155l28 -26l-133 -141q-43 -46 -84 -46q-21 0 -53 27t-76 69t-77 64l-185 -157z" />
<glyph unicode="&#x2000;" horiz-adv-x="913" />
<glyph unicode="&#x2001;" horiz-adv-x="1827" />
<glyph unicode="&#x2002;" horiz-adv-x="913" />
<glyph unicode="&#x2003;" horiz-adv-x="1827" />
<glyph unicode="&#x2004;" horiz-adv-x="609" />
<glyph unicode="&#x2005;" horiz-adv-x="456" />
<glyph unicode="&#x2006;" horiz-adv-x="304" />
<glyph unicode="&#x2007;" horiz-adv-x="304" />
<glyph unicode="&#x2008;" horiz-adv-x="228" />
<glyph unicode="&#x2009;" horiz-adv-x="365" />
<glyph unicode="&#x200a;" horiz-adv-x="101" />
<glyph unicode="&#x2010;" horiz-adv-x="759" d="M113 569v86h534v-86h-534z" />
<glyph unicode="&#x2011;" horiz-adv-x="759" d="M113 569v86h534v-86h-534z" />
<glyph unicode="&#x2012;" horiz-adv-x="759" d="M113 569v86h534v-86h-534z" />
<glyph unicode="&#x2013;" horiz-adv-x="1040" d="M113 571v84h815v-84h-815z" />
<glyph unicode="&#x2014;" horiz-adv-x="1710" d="M113 571v84h1484v-84h-1484z" />
<glyph unicode="&#x2018;" horiz-adv-x="352" d="M76 1161q0 110 139 281l29 -21q-37 -58 -56 -100t-21.5 -57.5t-2.5 -38.5l49 -17l-8 -65q-3 -51 -60 -41q-38 8 -53.5 19.5t-15.5 39.5z" />
<glyph unicode="&#x2019;" horiz-adv-x="352" d="M80 1124q37 58 56 100t21.5 58t2.5 39l-49 16l8 66q3 51 59 41q38 -8 54 -20t16 -40q0 -109 -139 -280z" />
<glyph unicode="&#x201a;" horiz-adv-x="358" d="M80 -205q38 58 57 102t21 57.5t4 39.5l-51 16l8 66q3 51 61 41q38 -8 54 -20t16 -40q0 -109 -141 -282z" />
<glyph unicode="&#x201c;" horiz-adv-x="577" d="M76 1161q0 110 141 283l29 -21q-38 -58 -57 -101.5t-21 -57t-4 -39.5l51 -17l-8 -65q-3 -51 -62 -41q-38 8 -53.5 19.5t-15.5 39.5zM299 1161q0 110 141 283l29 -21q-38 -58 -57 -101.5t-21 -57t-4 -39.5l51 -17l-8 -65q-3 -51 -61 -41q-39 8 -54.5 20t-15.5 39z" />
<glyph unicode="&#x201d;" horiz-adv-x="577" d="M78 1120q38 58 57 102t21 57.5t4 39.5l-51 16l8 66q3 51 61 41q38 -8 54 -20t16 -40q0 -108 -142 -282zM303 1120q38 58 57 102t21 57.5t4 39.5l-51 16l8 66q3 51 61 41q38 -8 54 -20t16 -40q0 -109 -141 -282z" />
<glyph unicode="&#x201e;" horiz-adv-x="579" d="M80 -205q38 58 57 102t21 57.5t4 39.5l-51 16l8 66q3 51 61 41q38 -8 54 -20t16 -40q0 -109 -141 -282zM305 -205q38 58 57 102t21 57.5t4 39.5l-51 16l8 66q3 51 62 41q38 -8 53.5 -20t15.5 -40q0 -109 -141 -282z" />
<glyph unicode="&#x2022;" horiz-adv-x="659" d="M61 670q0 144 81.5 218.5t230.5 74.5q311 0 311 -293q0 -141 -78.5 -213t-232.5 -72q-148 0 -230 73t-82 212z" />
<glyph unicode="&#x2026;" horiz-adv-x="905" d="M109 57q0 68 71 68q72 0 72 -68q0 -65 -72 -65q-71 0 -71 65zM377 57q0 68 72 68q71 0 71 -68q0 -65 -71 -65q-72 0 -72 65zM651 57q0 68 72 68t72 -68q0 -65 -72 -65t-72 65z" />
<glyph unicode="&#x202f;" horiz-adv-x="365" />
<glyph unicode="&#x2039;" horiz-adv-x="626" d="M92 537v12l369 395h55v-37l-315 -358v-12l315 -359v-37h-55z" />
<glyph unicode="&#x203a;" horiz-adv-x="626" d="M92 141v37l316 359v12l-316 358v37h55l369 -395v-12l-369 -396h-55z" />
<glyph unicode="&#x205f;" horiz-adv-x="456" />
<glyph unicode="&#x20ac;" horiz-adv-x="1261" d="M2 580v53h129v147h-129v56h129v127q0 240 118 363.5t343 123.5h39q298 0 467 -84v-301h-74l-12 235q-63 32 -145 47t-124.5 16t-144.5 1q-177 0 -271 -104t-94 -302v-122h635l-12 -56h-623v-147h560l-15 -53h-545v-162q0 -183 90 -266.5t271 -81.5h80q140 0 230.5 52.5 t139.5 162.5h72v-64q-59 -117 -172 -178t-264 -61h-92q-228 0 -342.5 103.5t-114.5 322.5v172h-129z" />
<glyph unicode="&#x2122;" horiz-adv-x="1427" d="M55 1280v154h516v-154h-45l-6 104h-176v-454q74 -4 113 -4v-47h-283v47q39 0 113 4v454h-181l-6 -104h-45zM612 879v47q28 0 90 4v452q-62 4 -90 4v48h166l209 -469h6l207 469h172v-48q-28 0 -90 -4v-452q62 -4 88 -4v-47h-223v49h78v438l-207 -487h-55l-207 487v-440h75 v-47h-219z" />
<glyph unicode="&#x25fc;" horiz-adv-x="1034" d="M0 0v1034h1034v-1034h-1034z" />
<glyph unicode="&#xfb01;" horiz-adv-x="1150" d="M92 963v65l168 6v135q0 107 38.5 169.5t133.5 84.5q73 17 199 39l10 -67q-92 -19 -172 -43q-68 -21 -89.5 -66t-21.5 -137v-113h572v-956q107 -4 164 -10v-70h-428v70q60 6 165 10v883h-473v-883q124 -4 191 -10v-70h-453v70q56 4 164 8v885h-168zM807 1327 q0 29 18.5 46.5t48.5 17.5t49 -17.5t19 -46.5q0 -26 -19.5 -42.5t-48.5 -16.5t-48 16.5t-19 42.5z" />
<glyph unicode="&#xfb02;" horiz-adv-x="1304" d="M92 963v65l168 6v135q0 107 38.5 169.5t133.5 84.5q73 17 199 39l10 -67q-92 -19 -172 -43q-68 -21 -89.5 -66t-21.5 -137v-113h322v-73h-322v-883q124 -4 191 -10v-70h-453v70q56 4 164 8v885h-168zM795 0v70q61 4 163 8v1276q-25 2 -75.5 5t-75.5 5v70h250v-1356 q104 -4 164 -8v-70h-426z" />
<glyph unicode="&#xfb03;" horiz-adv-x="1787" d="M92 963v65l168 6v135q0 107 38.5 169.5t133.5 84.5q73 17 199 39l10 -67q-92 -19 -172 -43q-68 -21 -89.5 -66t-21.5 -137v-113h539v133q0 107 38.5 169.5t133.5 84.5q73 17 199 39l10 -67q-92 -19 -172 -43q-68 -21 -89.5 -66t-21.5 -137v-113h572v-956q107 -4 164 -10 v-70h-428v70q60 6 165 10v883h-473v-883q124 -4 191 -10v-70h-453v70q56 4 164 8v885h-539v-883q124 -4 191 -10v-70h-453v70q56 4 164 8v885h-168zM1444 1327q0 29 18.5 46.5t48.5 17.5t49 -17.5t19 -46.5q0 -26 -19.5 -42.5t-48.5 -16.5t-48 16.5t-19 42.5z" />
<glyph unicode="&#xfb04;" horiz-adv-x="1890" d="M92 963v65l168 6v135q0 107 38.5 169.5t133.5 84.5q73 17 199 39l10 -67q-92 -19 -172 -43q-68 -21 -89.5 -66t-21.5 -137v-113h539v133q0 107 38.5 169.5t133.5 84.5q73 17 199 39l10 -67q-92 -19 -172 -43q-68 -21 -89.5 -66t-21.5 -137v-113h322v-73h-322v-883 q124 -4 191 -10v-70h-453v70q56 4 164 8v885h-539v-883q124 -4 191 -10v-70h-453v70q56 4 164 8v885h-168zM1380 0v70q60 4 164 8v1276q-26 2 -76 5t-75 5v70h249v-1356q104 -4 164 -8v-70h-426z" />
</font>
</defs>
</svg>
